<svg width="30" height="29" viewBox="0 0 34 33" fill="none" xmlns="http://www.w3.org/2000/svg">
<g clip-path="url(#clip0_2642_4404)">
<path d="M16.9789 0.405273C13.7807 0.405273 10.6543 1.35364 7.99515 3.13045C5.33596 4.90727 3.26338 7.43272 2.03949 10.3874C0.8156 13.3422 0.495375 16.5935 1.11931 19.7302C1.74324 22.8669 3.28331 25.7482 5.54476 28.0096C7.80621 30.2711 10.6875 31.8112 13.8242 32.4351C16.9609 33.059 20.2122 32.7388 23.167 31.5149C26.1217 30.291 28.6471 28.2184 30.4239 25.5593C32.2008 22.9001 33.1491 19.7737 33.1491 16.5755C33.1445 12.2883 31.4394 8.17806 28.4078 5.14655C25.3763 2.11505 21.2661 0.40991 16.9789 0.405273V0.405273ZM16.9789 28.7032C14.5802 28.7032 12.2355 27.992 10.2411 26.6593C8.24669 25.3267 6.69225 23.4327 5.77433 21.2166C4.85642 19.0006 4.61625 16.5621 5.0842 14.2095C5.55215 11.857 6.7072 9.69605 8.40329 7.99996C10.0994 6.30387 12.2603 5.14882 14.6129 4.68087C16.9654 4.21292 19.4039 4.45309 21.6199 5.37101C23.836 6.28892 25.7301 7.84336 27.0627 9.83775C28.3953 11.8321 29.1066 14.1769 29.1066 16.5755C29.103 19.7909 27.8241 22.8736 25.5505 25.1472C23.2769 27.4208 20.1942 28.6997 16.9789 28.7032ZM23.7165 16.5755C23.7165 17.1116 23.5035 17.6257 23.1245 18.0048C22.7454 18.3839 22.2313 18.5968 21.6952 18.5968H19.0001V21.2919C19.0001 21.8279 18.7872 22.3421 18.4081 22.7211C18.0291 23.1002 17.5149 23.3131 16.9789 23.3131C16.4428 23.3131 15.9287 23.1002 15.5496 22.7211C15.1705 22.3421 14.9576 21.8279 14.9576 21.2919V18.5968H12.2625C11.7265 18.5968 11.2123 18.3839 10.8333 18.0048C10.4542 17.6257 10.2413 17.1116 10.2413 16.5755C10.2413 16.0395 10.4542 15.5253 10.8333 15.1463C11.2123 14.7672 11.7265 14.5543 12.2625 14.5543H14.9576V11.8592C14.9576 11.3231 15.1705 10.809 15.5496 10.4299C15.9287 10.0509 16.4428 9.83793 16.9789 9.83793C17.5149 9.83793 18.0291 10.0509 18.4081 10.4299C18.7872 10.809 19.0001 11.3231 19.0001 11.8592V14.5543H21.6952C22.2313 14.5543 22.7454 14.7672 23.1245 15.1463C23.5035 15.5253 23.7165 16.0395 23.7165 16.5755Z" fill="#FFFFFF"/>
</g>
<defs>
<clipPath id="clip0_2642_4404">
<rect width="32.3405" height="32.3405" fill="white" transform="translate(0.808594 0.405273)"/>
</clipPath>
</defs>
</svg>
