<svg width="29" height="22" viewBox="0 0 29 22" fill="none" xmlns="http://www.w3.org/2000/svg">
<path d="M21.1182 1.23177L9.38185 12.8838L7.05591 10.4931C6.68281 10.1077 6.2369 9.79909 5.74364 9.58479C5.25039 9.37049 4.71945 9.25474 4.18114 9.24416C3.64283 9.23357 3.10769 9.32836 2.60628 9.52311C2.10487 9.71785 1.647 10.0087 1.25882 10.3792C0.87064 10.7496 0.559748 11.1923 0.343897 11.682C0.128047 12.1717 0.0114642 12.6988 0.000804605 13.2333C-0.0207234 14.3126 0.390504 15.3563 1.14402 16.1346L4.59604 19.7002C5.19447 20.331 5.91368 20.8369 6.71153 21.1882C7.50938 21.5395 8.36983 21.7293 9.24247 21.7463H9.35179C11.0842 21.742 12.745 21.0594 13.9736 19.8468L26.9125 6.99808C27.3041 6.6226 27.6164 6.17346 27.8313 5.67687C28.0462 5.18027 28.1593 4.64616 28.164 4.1057C28.1687 3.56525 28.065 3.02927 27.8588 2.52904C27.6527 2.02881 27.3483 1.57435 26.9633 1.19217C26.5784 0.809999 26.1207 0.507764 25.6168 0.303104C25.113 0.098444 24.5731 -0.00454274 24.0287 0.000153682C23.4844 0.0048501 22.9464 0.117135 22.4462 0.330458C21.946 0.54378 21.4936 0.853867 21.1154 1.24262L21.1182 1.23177Z" fill="white"/>
</svg>
