<svg width="26" height="27" viewBox="0 0 26 27" fill="none" xmlns="http://www.w3.org/2000/svg">
    <path d="M18.9953 13.5751L24.4983 8.07494C25.2965 7.27674 25.7449 6.19415 25.7449 5.06532C25.7449 3.9365 25.2965 2.85391 24.4983 2.05571C23.7001 1.25751 22.6175 0.809082 21.4886 0.809082C20.3598 0.809082 19.2772 1.25751 18.479 2.05571L12.9789 7.55868L7.47875 2.05571C6.68055 1.25751 5.59796 0.809082 4.46913 0.809082C3.34031 0.809082 2.25772 1.25751 1.45952 2.05571C0.661315 2.85391 0.212891 3.9365 0.212891 5.06532C0.212891 6.19415 0.661315 7.27674 1.45952 8.07494L6.96249 13.5751L1.45952 19.0752C0.661315 19.8734 0.212891 20.956 0.212891 22.0848C0.212891 23.2137 0.661315 24.2963 1.45952 25.0945C2.25772 25.8927 3.34031 26.3411 4.46913 26.3411C5.59796 26.3411 6.68055 25.8927 7.47875 25.0945L12.9789 19.5915L18.479 25.0945C19.2772 25.8927 20.3598 26.3411 21.4886 26.3411C22.6175 26.3411 23.7001 25.8927 24.4983 25.0945C25.2965 24.2963 25.7449 23.2137 25.7449 22.0848C25.7449 20.956 25.2965 19.8734 24.4983 19.0752L18.9953 13.5751Z" fill="#FFFFFF"/>
</svg>