<svg width="1920" height="315" viewBox="0 0 1920 315" fill="none" xmlns="http://www.w3.org/2000/svg">
<path fill-rule="evenodd" clip-rule="evenodd" d="M480.025 240.155C480.025 284.313 515.826 320.114 559.984 320.114L559.996 240.155L480.025 240.155Z" fill="#DB0000"/>
<path d="M800.082 320.114L800.082 240.155L720.111 240.155L720.111 320.114L800.082 320.114Z" fill="#DB0000"/>
<path fill-rule="evenodd" clip-rule="evenodd" d="M720.111 320.114L800.082 320.114L800.082 240.155C755.912 240.155 720.111 275.957 720.111 320.114Z" fill="#FFD105"/>
<path fill-rule="evenodd" clip-rule="evenodd" d="M639.98 320.114L560.009 320.114L560.009 240.155C604.179 240.155 639.98 275.957 639.98 320.114Z" fill="#33A100"/>
<path fill-rule="evenodd" clip-rule="evenodd" d="M880.078 240.155L880.078 320.114C924.248 320.114 960.05 284.313 960.05 240.155L880.078 240.155Z" fill="#33A100"/>
<path fill-rule="evenodd" clip-rule="evenodd" d="M800.107 159.913L800.107 239.872C844.277 239.872 880.078 204.071 880.078 159.913L800.107 159.913Z" fill="#33A100"/>
<path fill-rule="evenodd" clip-rule="evenodd" d="M880.078 159.913L880.078 79.9543C835.908 79.9543 800.107 115.756 800.107 159.913L880.078 159.913Z" fill="#FFD105"/>
<path fill-rule="evenodd" clip-rule="evenodd" d="M800.169 240.155C800.169 284.313 835.97 320.114 880.128 320.114C880.14 275.957 844.339 240.155 800.181 240.155L800.169 240.155Z" fill="#DB0000"/>
<path d="M560.046 240.106L560.046 160.098L480.025 160.098L480.025 240.106L560.046 240.106Z" fill="#33A100"/>
<path fill-rule="evenodd" clip-rule="evenodd" d="M560.046 160.098C515.851 160.098 480.025 195.911 480.025 240.106L560.046 240.106L560.046 160.098Z" fill="#FFD105"/>
<path fill-rule="evenodd" clip-rule="evenodd" d="M720.013 160.147L639.992 160.11L640.091 240.155L720.111 240.155L720.013 160.147Z" fill="#FFC82A"/>
<path fill-rule="evenodd" clip-rule="evenodd" d="M720.013 160.147L639.992 160.098L640.078 240.143C684.261 240.143 720.062 204.317 720 160.147L720.013 160.147Z" fill="#DB0000"/>
<path fill-rule="evenodd" clip-rule="evenodd" d="M640.005 240.057L639.931 160.049L559.91 160.135C559.959 204.317 595.822 240.094 640.005 240.045L640.005 240.057Z" fill="#FFD105"/>
<path fill-rule="evenodd" clip-rule="evenodd" d="M480.025 160.098L560.046 160.098L560.046 80.0897C515.851 80.0897 480.025 115.916 480.025 160.098Z" fill="#0042C8"/>
<path fill-rule="evenodd" clip-rule="evenodd" d="M480.025 0.0814784L480.025 80.0897L560.046 80.0897C560.046 35.9073 524.232 0.0814804 480.037 0.0814784L480.025 0.0814784Z" fill="#DB0000"/>
<path fill-rule="evenodd" clip-rule="evenodd" d="M560.045 80.0897L560.045 160.098L640.066 160.098C640.066 115.916 604.24 80.0897 560.058 80.0897L560.045 80.0897Z" fill="#33A100"/>
<path fill-rule="evenodd" clip-rule="evenodd" d="M560.045 80.0897L640.066 80.0897L640.066 0.0814819C595.871 0.08148 560.045 35.9073 560.045 80.0897Z" fill="#FFD105"/>
<path fill-rule="evenodd" clip-rule="evenodd" d="M560.045 80.0897C604.24 80.0897 640.066 44.2761 640.066 0.0814819C595.871 0.08148 560.045 35.9073 560.045 80.0897Z" fill="#0042C8"/>
<path fill-rule="evenodd" clip-rule="evenodd" d="M720.087 80.0897C675.892 80.0897 640.067 115.916 640.067 160.098L720.087 160.098L720.087 80.0897Z" fill="#0042C8"/>
<path d="M800.107 160.098L800.107 80.0897L720.087 80.0897L720.087 160.098L800.107 160.098Z" fill="#FFD105"/>
<path fill-rule="evenodd" clip-rule="evenodd" d="M640.079 0.0814784L640.066 80.0897L720.087 80.0897C720.087 35.9073 684.261 0.0814804 640.079 0.0814784Z" fill="#33A100"/>
<path fill-rule="evenodd" clip-rule="evenodd" d="M720.087 80.0897C764.281 80.0897 800.107 44.2761 800.107 0.0814819C755.913 0.08148 720.087 35.9073 720.087 80.0897Z" fill="#FFD105"/>
<path fill-rule="evenodd" clip-rule="evenodd" d="M800.107 239.921L800.107 159.913L720.087 159.913C720.087 204.096 755.9 239.921 800.095 239.921L800.107 239.921Z" fill="#0042C8"/>
<path fill-rule="evenodd" clip-rule="evenodd" d="M960.05 159.913L880.078 159.913C880.078 204.071 915.88 239.872 960.037 239.872L960.05 159.913Z" fill="#0042C8"/>
<path fill-rule="evenodd" clip-rule="evenodd" d="M960.05 79.9543L880.078 79.9543C880.078 124.112 915.88 159.913 960.037 159.913L960.05 79.9543Z" fill="#FFD105"/>
<path fill-rule="evenodd" clip-rule="evenodd" d="M880.078 79.9543L960.05 79.9543C960.05 35.7966 924.248 -0.00464024 880.091 -0.00464217L880.078 79.9543Z" fill="#0042C8"/>
<path fill-rule="evenodd" clip-rule="evenodd" d="M880.078 79.9543L800.107 79.9543C800.107 35.7966 835.908 -0.0046406 880.066 -0.00463867L880.078 79.9543Z" fill="#33A100"/>
<path fill-rule="evenodd" clip-rule="evenodd" d="M880.091 79.9543C880.079 124.112 915.88 159.913 960.038 159.913C960.05 115.756 924.249 79.9543 880.091 79.9543Z" fill="#DB0000"/>
<path fill-rule="evenodd" clip-rule="evenodd" d="M720.123 79.9543C720.111 124.112 755.912 159.913 800.07 159.913C800.082 115.756 764.281 79.9543 720.123 79.9543Z" fill="#33A100"/>
<path fill-rule="evenodd" clip-rule="evenodd" d="M640.103 320.065C640.091 275.907 675.892 240.106 720.05 240.106C720.062 284.264 684.261 320.065 640.103 320.065Z" fill="#33A100"/>
<path fill-rule="evenodd" clip-rule="evenodd" d="M880.091 79.9543C880.079 124.112 915.88 159.913 960.038 159.913C960.05 115.756 924.249 79.9543 880.091 79.9543Z" fill="#DB0000"/>
<path fill-rule="evenodd" clip-rule="evenodd" d="M880.091 79.9543C880.079 124.112 915.88 159.913 960.038 159.913C960.05 115.756 924.249 79.9543 880.091 79.9543Z" fill="#DB0000"/>
<path fill-rule="evenodd" clip-rule="evenodd" d="M1439.98 240.143C1439.98 284.301 1475.78 320.102 1519.93 320.102L1519.95 240.143L1439.98 240.143Z" fill="#DB0000"/>
<path d="M1760.03 320.102L1760.03 240.143L1680.06 240.143L1680.06 320.102L1760.03 320.102Z" fill="#DB0000"/>
<path fill-rule="evenodd" clip-rule="evenodd" d="M1680.06 320.102L1760.03 320.102L1760.03 240.143C1715.86 240.143 1680.06 275.944 1680.06 320.102Z" fill="#FFD105"/>
<path fill-rule="evenodd" clip-rule="evenodd" d="M1599.93 320.102L1519.96 320.102L1519.96 240.143C1564.13 240.143 1599.93 275.944 1599.93 320.102Z" fill="#33A100"/>
<path fill-rule="evenodd" clip-rule="evenodd" d="M1840.03 240.143L1840.03 320.102C1884.2 320.102 1920 284.301 1920 240.143L1840.03 240.143Z" fill="#33A100"/>
<path fill-rule="evenodd" clip-rule="evenodd" d="M1760.06 159.913L1760.06 239.872C1804.23 239.872 1840.03 204.071 1840.03 159.913L1760.06 159.913Z" fill="#33A100"/>
<path fill-rule="evenodd" clip-rule="evenodd" d="M1840.03 159.913L1840.03 79.9544C1795.86 79.9544 1760.06 115.756 1760.06 159.913L1840.03 159.913Z" fill="#FFD105"/>
<path fill-rule="evenodd" clip-rule="evenodd" d="M1760.12 240.143C1760.12 284.301 1795.92 320.102 1840.08 320.102C1840.09 275.944 1804.29 240.143 1760.13 240.143L1760.12 240.143Z" fill="#DB0000"/>
<path d="M1520 240.106L1520 160.098L1439.98 160.098L1439.98 240.106L1520 240.106Z" fill="#33A100"/>
<path fill-rule="evenodd" clip-rule="evenodd" d="M1520 160.098C1475.8 160.098 1439.98 195.912 1439.98 240.106L1520 240.106L1520 160.098Z" fill="#FFD105"/>
<path fill-rule="evenodd" clip-rule="evenodd" d="M1679.96 160.147L1599.94 160.098L1600.04 240.143L1680.06 240.143L1679.96 160.147Z" fill="#FFC82A"/>
<path fill-rule="evenodd" clip-rule="evenodd" d="M1679.96 160.147L1599.94 160.098L1600.03 240.143C1644.21 240.143 1680.01 204.317 1679.95 160.147L1679.96 160.147Z" fill="#DB0000"/>
<path fill-rule="evenodd" clip-rule="evenodd" d="M1599.96 240.057L1599.88 160.049L1519.86 160.135C1519.91 204.317 1555.77 240.094 1599.96 240.045L1599.96 240.057Z" fill="#FFD105"/>
<path fill-rule="evenodd" clip-rule="evenodd" d="M1439.98 160.098L1520 160.098L1520 80.0899C1475.8 80.0899 1439.98 115.903 1439.98 160.098Z" fill="#0042C8"/>
<path fill-rule="evenodd" clip-rule="evenodd" d="M1439.98 0.0816615L1439.98 80.0899L1520 80.0899C1520 35.9075 1484.17 0.0816635 1439.99 0.0816615L1439.98 0.0816615Z" fill="#DB0000"/>
<path fill-rule="evenodd" clip-rule="evenodd" d="M1520 80.0899L1520 160.098L1600.02 160.098C1600.02 115.916 1564.19 80.0899 1520.01 80.0899L1520 80.0899Z" fill="#33A100"/>
<path fill-rule="evenodd" clip-rule="evenodd" d="M1520 80.0899L1600.02 80.0899L1600.02 0.081665C1555.82 0.0816631 1520 35.9075 1520 80.0899Z" fill="#FFD105"/>
<path fill-rule="evenodd" clip-rule="evenodd" d="M1520 80.0899C1564.19 80.0899 1600.02 44.2763 1600.02 0.081665C1555.82 0.0816631 1520 35.9075 1520 80.0899Z" fill="#0042C8"/>
<path fill-rule="evenodd" clip-rule="evenodd" d="M1680.04 80.0899C1635.84 80.0899 1600.02 115.903 1600.02 160.098L1680.04 160.098L1680.04 80.0899Z" fill="#0042C8"/>
<path d="M1760.06 160.098L1760.06 80.0899L1680.04 80.0899L1680.04 160.098L1760.06 160.098Z" fill="#FFD105"/>
<path fill-rule="evenodd" clip-rule="evenodd" d="M1600.03 0.0816615L1600.02 80.0899L1680.04 80.0899C1680.04 35.9075 1644.21 0.0816635 1600.03 0.0816615Z" fill="#33A100"/>
<path fill-rule="evenodd" clip-rule="evenodd" d="M1680.04 80.0899C1724.23 80.0899 1760.06 44.2763 1760.06 0.081665C1715.86 0.0816631 1680.04 35.9075 1680.04 80.0899Z" fill="#FFD105"/>
<path fill-rule="evenodd" clip-rule="evenodd" d="M1760.06 239.922L1760.06 159.913L1680.04 159.913C1680.04 204.096 1715.85 239.922 1760.05 239.922L1760.06 239.922Z" fill="#0042C8"/>
<path fill-rule="evenodd" clip-rule="evenodd" d="M1920 159.913L1840.03 159.913C1840.03 204.071 1875.83 239.872 1919.99 239.872L1920 159.913Z" fill="#0042C8"/>
<path fill-rule="evenodd" clip-rule="evenodd" d="M1920 79.9544L1840.03 79.9544C1840.03 124.112 1875.83 159.913 1919.99 159.913L1920 79.9544Z" fill="#FFD105"/>
<path fill-rule="evenodd" clip-rule="evenodd" d="M1840.03 79.9545L1920 79.9545C1920 35.7968 1884.2 -0.00445713 1840.04 -0.00445906L1840.03 79.9545Z" fill="#0042C8"/>
<path fill-rule="evenodd" clip-rule="evenodd" d="M1840.03 79.9545L1760.06 79.9545C1760.06 35.7968 1795.86 -0.0044575 1840.02 -0.00445557L1840.03 79.9545Z" fill="#33A100"/>
<path fill-rule="evenodd" clip-rule="evenodd" d="M1840.04 79.9544C1840.03 124.112 1875.83 159.913 1919.99 159.913C1920 115.756 1884.2 79.9544 1840.04 79.9544Z" fill="#DB0000"/>
<path fill-rule="evenodd" clip-rule="evenodd" d="M1680.07 79.9544C1680.06 124.112 1715.86 159.913 1760.02 159.913C1760.03 115.756 1724.23 79.9544 1680.07 79.9544Z" fill="#33A100"/>
<path fill-rule="evenodd" clip-rule="evenodd" d="M1600.05 320.053C1600.04 275.895 1635.84 240.094 1680 240.094C1680.01 284.252 1644.21 320.053 1600.05 320.053Z" fill="#33A100"/>
<path fill-rule="evenodd" clip-rule="evenodd" d="M1840.04 79.9544C1840.03 124.112 1875.83 159.913 1919.99 159.913C1920 115.756 1884.2 79.9544 1840.04 79.9544Z" fill="#DB0000"/>
<path fill-rule="evenodd" clip-rule="evenodd" d="M1840.04 79.9544C1840.03 124.112 1875.83 159.913 1919.99 159.913C1920 115.756 1884.2 79.9544 1840.04 79.9544Z" fill="#DB0000"/>
<path fill-rule="evenodd" clip-rule="evenodd" d="M0.000114441 240.155C0.000112511 284.313 35.8014 320.114 79.9591 320.114L79.9714 240.155L0.000114441 240.155Z" fill="#DB0000"/>
<path d="M320.058 320.114L320.058 240.155L240.086 240.155L240.086 320.114L320.058 320.114Z" fill="#DB0000"/>
<path fill-rule="evenodd" clip-rule="evenodd" d="M240.086 320.114L320.058 320.114L320.058 240.155C275.888 240.155 240.086 275.957 240.086 320.114Z" fill="#FFD105"/>
<path fill-rule="evenodd" clip-rule="evenodd" d="M159.955 320.114L79.9836 320.114L79.9836 240.155C124.154 240.155 159.955 275.957 159.955 320.114Z" fill="#33A100"/>
<path fill-rule="evenodd" clip-rule="evenodd" d="M400.054 240.155L400.054 320.114C444.224 320.114 480.025 284.313 480.025 240.155L400.054 240.155Z" fill="#33A100"/>
<path fill-rule="evenodd" clip-rule="evenodd" d="M320.082 159.913L320.082 239.872C364.252 239.872 400.054 204.071 400.054 159.913L320.082 159.913Z" fill="#33A100"/>
<path fill-rule="evenodd" clip-rule="evenodd" d="M400.054 159.913L400.054 79.9543C355.884 79.9543 320.082 115.756 320.082 159.913L400.054 159.913Z" fill="#FFD105"/>
<path fill-rule="evenodd" clip-rule="evenodd" d="M320.144 240.155C320.144 284.313 355.945 320.114 400.103 320.114C400.115 275.957 364.314 240.155 320.156 240.155L320.144 240.155Z" fill="#DB0000"/>
<path d="M80.0207 240.106L80.0207 160.098L0.000167847 160.098L0.000164349 240.106L80.0207 240.106Z" fill="#33A100"/>
<path fill-rule="evenodd" clip-rule="evenodd" d="M80.0207 160.098C35.826 160.098 0.000166281 195.911 0.000164349 240.106L80.0207 240.106L80.0207 160.098Z" fill="#FFD105"/>
<path fill-rule="evenodd" clip-rule="evenodd" d="M239.988 160.147L159.98 160.11L160.066 240.155L240.086 240.155L239.988 160.147Z" fill="#FFC82A"/>
<path fill-rule="evenodd" clip-rule="evenodd" d="M239.988 160.147L159.967 160.098L160.053 240.143C204.236 240.143 240.037 204.317 239.976 160.147L239.988 160.147Z" fill="#DB0000"/>
<path fill-rule="evenodd" clip-rule="evenodd" d="M159.98 240.057L159.906 160.049L79.8855 160.135C79.9347 204.317 115.797 240.094 159.98 240.045L159.98 240.057Z" fill="#FFD105"/>
<path fill-rule="evenodd" clip-rule="evenodd" d="M0.000164349 160.098L80.0207 160.098L80.0207 80.0897C35.826 80.0897 0.000166281 115.916 0.000164349 160.098Z" fill="#0042C8"/>
<path fill-rule="evenodd" clip-rule="evenodd" d="M0.000167847 0.0814784L0.000164349 80.0897L80.0207 80.0897C80.0207 35.9073 44.2071 0.0814804 0.0248032 0.0814784L0.000167847 0.0814784Z" fill="#DB0000"/>
<path fill-rule="evenodd" clip-rule="evenodd" d="M80.0207 80.0897L80.0207 160.098L160.041 160.098C160.041 115.916 124.215 80.0897 80.033 80.0897L80.0207 80.0897Z" fill="#33A100"/>
<path fill-rule="evenodd" clip-rule="evenodd" d="M80.0207 80.0897L160.041 80.0897L160.041 0.0814819C115.847 0.08148 80.0207 35.9073 80.0207 80.0897Z" fill="#FFD105"/>
<path fill-rule="evenodd" clip-rule="evenodd" d="M80.0207 80.0897C124.215 80.0897 160.041 44.2761 160.041 0.0814819C115.847 0.08148 80.0207 35.9073 80.0207 80.0897Z" fill="#0042C8"/>
<path fill-rule="evenodd" clip-rule="evenodd" d="M240.062 80.0897C195.867 80.0897 160.041 115.916 160.041 160.098L240.062 160.098L240.062 80.0897Z" fill="#0042C8"/>
<path d="M320.082 160.098L320.082 80.0897L240.062 80.0897L240.062 160.098L320.082 160.098Z" fill="#FFD105"/>
<path fill-rule="evenodd" clip-rule="evenodd" d="M160.054 0.0814784L160.041 80.0897L240.062 80.0897C240.062 35.9073 204.248 0.0814804 160.054 0.0814784Z" fill="#33A100"/>
<path fill-rule="evenodd" clip-rule="evenodd" d="M240.062 80.0897C284.257 80.0897 320.082 44.2761 320.082 0.0814819C275.888 0.08148 240.062 35.9073 240.062 80.0897Z" fill="#FFD105"/>
<path fill-rule="evenodd" clip-rule="evenodd" d="M320.082 239.921L320.082 159.913L240.062 159.913C240.062 204.096 275.888 239.921 320.07 239.921L320.082 239.921Z" fill="#0042C8"/>
<path fill-rule="evenodd" clip-rule="evenodd" d="M480.025 159.913L400.054 159.913C400.054 204.071 435.855 239.872 480.013 239.872L480.025 159.913Z" fill="#0042C8"/>
<path fill-rule="evenodd" clip-rule="evenodd" d="M480.025 79.9543L400.054 79.9543C400.054 124.112 435.855 159.913 480.013 159.913L480.025 79.9543Z" fill="#FFD105"/>
<path fill-rule="evenodd" clip-rule="evenodd" d="M400.054 79.9543L480.025 79.9543C480.025 35.7966 444.224 -0.00464024 400.066 -0.00464217L400.054 79.9543Z" fill="#0042C8"/>
<path fill-rule="evenodd" clip-rule="evenodd" d="M400.054 79.9543L320.082 79.9543C320.082 35.7966 355.884 -0.0046406 400.041 -0.00463867L400.054 79.9543Z" fill="#33A100"/>
<path fill-rule="evenodd" clip-rule="evenodd" d="M400.066 79.9543C400.053 124.112 435.855 159.913 480.012 159.913C480.025 115.756 444.223 79.9543 400.066 79.9543Z" fill="#DB0000"/>
<path fill-rule="evenodd" clip-rule="evenodd" d="M240.099 79.9543C240.087 124.112 275.888 159.913 320.045 159.913C320.058 115.756 284.257 79.9543 240.099 79.9543Z" fill="#33A100"/>
<path fill-rule="evenodd" clip-rule="evenodd" d="M160.078 320.065C160.066 275.907 195.867 240.106 240.025 240.106C240.037 284.264 204.236 320.065 160.078 320.065Z" fill="#33A100"/>
<path fill-rule="evenodd" clip-rule="evenodd" d="M400.066 79.9543C400.053 124.112 435.855 159.913 480.012 159.913C480.025 115.756 444.223 79.9543 400.066 79.9543Z" fill="#DB0000"/>
<path fill-rule="evenodd" clip-rule="evenodd" d="M400.066 79.9543C400.053 124.112 435.855 159.913 480.012 159.913C480.025 115.756 444.223 79.9543 400.066 79.9543Z" fill="#DB0000"/>
<path fill-rule="evenodd" clip-rule="evenodd" d="M959.951 240.143C959.951 284.301 995.752 320.102 1039.91 320.102L1039.92 240.143L959.951 240.143Z" fill="#DB0000"/>
<path d="M1280.01 320.102L1280.01 240.143L1200.04 240.143L1200.04 320.102L1280.01 320.102Z" fill="#DB0000"/>
<path fill-rule="evenodd" clip-rule="evenodd" d="M1200.04 320.102L1280.01 320.102L1280.01 240.143C1235.84 240.143 1200.04 275.944 1200.04 320.102Z" fill="#FFD105"/>
<path fill-rule="evenodd" clip-rule="evenodd" d="M1119.91 320.102L1039.93 320.102L1039.93 240.143C1084.1 240.143 1119.91 275.944 1119.91 320.102Z" fill="#33A100"/>
<path fill-rule="evenodd" clip-rule="evenodd" d="M1360 240.143L1360 320.102C1404.17 320.102 1439.98 284.301 1439.98 240.143L1360 240.143Z" fill="#33A100"/>
<path fill-rule="evenodd" clip-rule="evenodd" d="M1280.03 159.913L1280.03 239.872C1324.2 239.872 1360 204.071 1360 159.913L1280.03 159.913Z" fill="#33A100"/>
<path fill-rule="evenodd" clip-rule="evenodd" d="M1360 159.913L1360 79.9544C1315.83 79.9544 1280.03 115.756 1280.03 159.913L1360 159.913Z" fill="#FFD105"/>
<path fill-rule="evenodd" clip-rule="evenodd" d="M1280.09 240.143C1280.09 284.301 1315.9 320.102 1360.05 320.102C1360.07 275.944 1324.27 240.143 1280.11 240.143L1280.09 240.143Z" fill="#DB0000"/>
<path d="M1039.97 240.106L1039.97 160.098L959.951 160.098L959.951 240.106L1039.97 240.106Z" fill="#33A100"/>
<path fill-rule="evenodd" clip-rule="evenodd" d="M1039.97 160.098C995.777 160.098 959.951 195.912 959.951 240.106L1039.97 240.106L1039.97 160.098Z" fill="#FFD105"/>
<path fill-rule="evenodd" clip-rule="evenodd" d="M1199.94 160.147L1119.93 160.098L1120.02 240.143L1200.04 240.143L1199.94 160.147Z" fill="#FFC82A"/>
<path fill-rule="evenodd" clip-rule="evenodd" d="M1199.94 160.147L1119.92 160.098L1120 240.143C1164.19 240.143 1199.99 204.317 1199.93 160.147L1199.94 160.147Z" fill="#DB0000"/>
<path fill-rule="evenodd" clip-rule="evenodd" d="M1119.93 240.057L1119.86 160.049L1039.84 160.135C1039.89 204.317 1075.75 240.094 1119.93 240.045L1119.93 240.057Z" fill="#FFD105"/>
<path fill-rule="evenodd" clip-rule="evenodd" d="M959.951 160.098L1039.97 160.098L1039.97 80.0899C995.777 80.0899 959.951 115.903 959.951 160.098Z" fill="#0042C8"/>
<path fill-rule="evenodd" clip-rule="evenodd" d="M959.951 0.0816615L959.951 80.0899L1039.97 80.0899C1039.97 35.9075 1004.15 0.0816635 959.963 0.0816615L959.951 0.0816615Z" fill="#DB0000"/>
<path fill-rule="evenodd" clip-rule="evenodd" d="M1039.97 80.0899L1039.97 160.098L1119.99 160.098C1119.99 115.916 1084.17 80.0899 1039.98 80.0899L1039.97 80.0899Z" fill="#33A100"/>
<path fill-rule="evenodd" clip-rule="evenodd" d="M1039.97 80.0899L1119.99 80.0899L1119.99 0.081665C1075.8 0.0816631 1039.97 35.9075 1039.97 80.0899Z" fill="#FFD105"/>
<path fill-rule="evenodd" clip-rule="evenodd" d="M1039.97 80.0899C1084.17 80.0899 1119.99 44.2763 1119.99 0.081665C1075.8 0.0816631 1039.97 35.9075 1039.97 80.0899Z" fill="#0042C8"/>
<path fill-rule="evenodd" clip-rule="evenodd" d="M1200.01 80.0899C1155.82 80.0899 1119.99 115.903 1119.99 160.098L1200.01 160.098L1200.01 80.0899Z" fill="#0042C8"/>
<path d="M1280.03 160.098L1280.03 80.0899L1200.01 80.0899L1200.01 160.098L1280.03 160.098Z" fill="#FFD105"/>
<path fill-rule="evenodd" clip-rule="evenodd" d="M1120 0.0816615L1119.99 80.0899L1200.01 80.0899C1200.01 35.9075 1164.19 0.0816635 1120 0.0816615Z" fill="#33A100"/>
<path fill-rule="evenodd" clip-rule="evenodd" d="M1200.01 80.0899C1244.21 80.0899 1280.03 44.2763 1280.03 0.081665C1235.84 0.0816631 1200.01 35.9075 1200.01 80.0899Z" fill="#FFD105"/>
<path fill-rule="evenodd" clip-rule="evenodd" d="M1280.03 239.922L1280.03 159.913L1200.01 159.913C1200.01 204.096 1235.84 239.922 1280.02 239.922L1280.03 239.922Z" fill="#0042C8"/>
<path fill-rule="evenodd" clip-rule="evenodd" d="M1439.98 159.913L1360 159.913C1360 204.071 1395.81 239.872 1439.96 239.872L1439.98 159.913Z" fill="#0042C8"/>
<path fill-rule="evenodd" clip-rule="evenodd" d="M1439.98 79.9544L1360 79.9544C1360 124.112 1395.81 159.913 1439.96 159.913L1439.98 79.9544Z" fill="#FFD105"/>
<path fill-rule="evenodd" clip-rule="evenodd" d="M1360 79.9545L1439.98 79.9545C1439.98 35.7968 1404.17 -0.00445713 1360.02 -0.00445906L1360 79.9545Z" fill="#0042C8"/>
<path fill-rule="evenodd" clip-rule="evenodd" d="M1360 79.9545L1280.03 79.9545C1280.03 35.7968 1315.83 -0.0044575 1359.99 -0.00445557L1360 79.9545Z" fill="#33A100"/>
<path fill-rule="evenodd" clip-rule="evenodd" d="M1360.02 79.9544C1360 124.112 1395.81 159.913 1439.96 159.913C1439.98 115.756 1404.17 79.9544 1360.02 79.9544Z" fill="#DB0000"/>
<path fill-rule="evenodd" clip-rule="evenodd" d="M1200.05 79.9544C1200.04 124.112 1235.84 159.913 1280 159.913C1280.01 115.756 1244.21 79.9544 1200.05 79.9544Z" fill="#33A100"/>
<path fill-rule="evenodd" clip-rule="evenodd" d="M1120.03 320.053C1120.02 275.895 1155.82 240.094 1199.98 240.094C1199.99 284.252 1164.19 320.053 1120.03 320.053Z" fill="#33A100"/>
<path fill-rule="evenodd" clip-rule="evenodd" d="M1360.02 79.9544C1360 124.112 1395.81 159.913 1439.96 159.913C1439.98 115.756 1404.17 79.9544 1360.02 79.9544Z" fill="#DB0000"/>
<path fill-rule="evenodd" clip-rule="evenodd" d="M1360.02 79.9544C1360 124.112 1395.81 159.913 1439.96 159.913C1439.98 115.756 1404.17 79.9544 1360.02 79.9544Z" fill="#DB0000"/>
</svg>
