<svg width="1920" height="315" viewBox="0 0 1920 315" fill="none" xmlns="http://www.w3.org/2000/svg">
<g opacity="0.1">
<path fill-rule="evenodd" clip-rule="evenodd" d="M480.025 240.194C480.025 284.352 515.826 320.153 559.984 320.153L559.996 240.194L480.025 240.194Z" fill="#DB0000"/>
<path d="M800.082 320.153L800.082 240.194L720.111 240.194L720.111 320.153L800.082 320.153Z" fill="#DB0000"/>
<path fill-rule="evenodd" clip-rule="evenodd" d="M720.111 320.153L800.082 320.153L800.082 240.194C755.912 240.194 720.111 275.996 720.111 320.153Z" fill="#FFD105"/>
<path fill-rule="evenodd" clip-rule="evenodd" d="M639.98 320.153L560.009 320.153L560.009 240.194C604.179 240.194 639.98 275.996 639.98 320.153Z" fill="#33A100"/>
<path fill-rule="evenodd" clip-rule="evenodd" d="M880.078 240.194L880.078 320.153C924.248 320.153 960.05 284.352 960.05 240.194L880.078 240.194Z" fill="#33A100"/>
<path fill-rule="evenodd" clip-rule="evenodd" d="M800.107 159.952L800.107 239.911C844.277 239.911 880.078 204.11 880.078 159.952L800.107 159.952Z" fill="#33A100"/>
<path fill-rule="evenodd" clip-rule="evenodd" d="M880.078 159.952L880.078 79.9934C835.908 79.9934 800.107 115.795 800.107 159.952L880.078 159.952Z" fill="#FFD105"/>
<path fill-rule="evenodd" clip-rule="evenodd" d="M800.169 240.194C800.169 284.352 835.97 320.153 880.128 320.153C880.14 275.996 844.339 240.194 800.181 240.194L800.169 240.194Z" fill="#DB0000"/>
<path d="M560.046 240.145L560.046 160.137L480.025 160.137L480.025 240.145L560.046 240.145Z" fill="#33A100"/>
<path fill-rule="evenodd" clip-rule="evenodd" d="M560.046 160.137C515.851 160.137 480.025 195.951 480.025 240.145L560.046 240.145L560.046 160.137Z" fill="#FFD105"/>
<path fill-rule="evenodd" clip-rule="evenodd" d="M720.013 160.186L639.992 160.149L640.091 240.194L720.111 240.194L720.013 160.186Z" fill="#FFC82A"/>
<path fill-rule="evenodd" clip-rule="evenodd" d="M720.013 160.186L639.992 160.137L640.078 240.182C684.261 240.182 720.062 204.356 720 160.186L720.013 160.186Z" fill="#DB0000"/>
<path fill-rule="evenodd" clip-rule="evenodd" d="M640.005 240.096L639.931 160.088L559.91 160.174C559.959 204.356 595.822 240.133 640.005 240.084L640.005 240.096Z" fill="#FFD105"/>
<path fill-rule="evenodd" clip-rule="evenodd" d="M480.025 160.137L560.046 160.137L560.046 80.1287C515.851 80.1287 480.025 115.955 480.025 160.137Z" fill="#0042C8"/>
<path fill-rule="evenodd" clip-rule="evenodd" d="M480.025 0.120602L480.025 80.1288L560.046 80.1288C560.046 35.9465 524.232 0.120604 480.037 0.120602L480.025 0.120602Z" fill="#DB0000"/>
<path fill-rule="evenodd" clip-rule="evenodd" d="M560.045 80.1287L560.045 160.137L640.066 160.137C640.066 115.955 604.24 80.1287 560.058 80.1287L560.045 80.1287Z" fill="#33A100"/>
<path fill-rule="evenodd" clip-rule="evenodd" d="M560.045 80.1288L640.066 80.1288L640.066 0.120605C595.871 0.120604 560.045 35.9464 560.045 80.1288Z" fill="#FFD105"/>
<path fill-rule="evenodd" clip-rule="evenodd" d="M560.045 80.1288C604.24 80.1288 640.066 44.3153 640.066 0.120605C595.871 0.120604 560.045 35.9464 560.045 80.1288Z" fill="#0042C8"/>
<path fill-rule="evenodd" clip-rule="evenodd" d="M720.087 80.1287C675.892 80.1287 640.067 115.955 640.067 160.137L720.087 160.137L720.087 80.1287Z" fill="#0042C8"/>
<path d="M800.107 160.137L800.107 80.1287L720.087 80.1287L720.087 160.137L800.107 160.137Z" fill="#FFD105"/>
<path fill-rule="evenodd" clip-rule="evenodd" d="M640.079 0.120602L640.066 80.1288L720.087 80.1288C720.087 35.9465 684.261 0.120604 640.079 0.120602Z" fill="#33A100"/>
<path fill-rule="evenodd" clip-rule="evenodd" d="M720.087 80.1288C764.281 80.1288 800.107 44.3153 800.107 0.120605C755.913 0.120604 720.087 35.9464 720.087 80.1288Z" fill="#FFD105"/>
<path fill-rule="evenodd" clip-rule="evenodd" d="M800.107 239.961L800.107 159.952L720.087 159.952C720.087 204.135 755.9 239.961 800.095 239.961L800.107 239.961Z" fill="#0042C8"/>
<path fill-rule="evenodd" clip-rule="evenodd" d="M960.05 159.952L880.078 159.952C880.078 204.11 915.88 239.911 960.037 239.911L960.05 159.952Z" fill="#0042C8"/>
<path fill-rule="evenodd" clip-rule="evenodd" d="M960.05 79.9934L880.078 79.9934C880.078 124.151 915.88 159.952 960.037 159.952L960.05 79.9934Z" fill="#FFD105"/>
<path fill-rule="evenodd" clip-rule="evenodd" d="M880.078 79.9934L960.05 79.9934C960.05 35.8357 924.248 0.0344223 880.091 0.0344203L880.078 79.9934Z" fill="#0042C8"/>
<path fill-rule="evenodd" clip-rule="evenodd" d="M880.078 79.9934L800.107 79.9934C800.107 35.8357 835.908 0.0344219 880.066 0.0344238L880.078 79.9934Z" fill="#33A100"/>
<path fill-rule="evenodd" clip-rule="evenodd" d="M880.091 79.9934C880.079 124.151 915.88 159.952 960.038 159.952C960.05 115.795 924.249 79.9934 880.091 79.9934Z" fill="#DB0000"/>
<path fill-rule="evenodd" clip-rule="evenodd" d="M720.123 79.9934C720.111 124.151 755.912 159.952 800.07 159.952C800.082 115.795 764.281 79.9934 720.123 79.9934Z" fill="#33A100"/>
<path fill-rule="evenodd" clip-rule="evenodd" d="M640.103 320.104C640.091 275.946 675.892 240.145 720.05 240.145C720.062 284.303 684.261 320.104 640.103 320.104Z" fill="#33A100"/>
<path fill-rule="evenodd" clip-rule="evenodd" d="M880.091 79.9934C880.079 124.151 915.88 159.952 960.038 159.952C960.05 115.795 924.249 79.9934 880.091 79.9934Z" fill="#DB0000"/>
<path fill-rule="evenodd" clip-rule="evenodd" d="M880.091 79.9934C880.079 124.151 915.88 159.952 960.038 159.952C960.05 115.795 924.249 79.9934 880.091 79.9934Z" fill="#DB0000"/>
<path fill-rule="evenodd" clip-rule="evenodd" d="M1439.98 240.182C1439.98 284.34 1475.78 320.141 1519.93 320.141L1519.95 240.182L1439.98 240.182Z" fill="#DB0000"/>
<path d="M1760.03 320.141L1760.03 240.182L1680.06 240.182L1680.06 320.141L1760.03 320.141Z" fill="#DB0000"/>
<path fill-rule="evenodd" clip-rule="evenodd" d="M1680.06 320.141L1760.03 320.141L1760.03 240.182C1715.86 240.182 1680.06 275.984 1680.06 320.141Z" fill="#FFD105"/>
<path fill-rule="evenodd" clip-rule="evenodd" d="M1599.93 320.141L1519.96 320.141L1519.96 240.182C1564.13 240.182 1599.93 275.984 1599.93 320.141Z" fill="#33A100"/>
<path fill-rule="evenodd" clip-rule="evenodd" d="M1840.03 240.182L1840.03 320.141C1884.2 320.141 1920 284.34 1920 240.182L1840.03 240.182Z" fill="#33A100"/>
<path fill-rule="evenodd" clip-rule="evenodd" d="M1760.06 159.953L1760.06 239.912C1804.23 239.912 1840.03 204.11 1840.03 159.953L1760.06 159.953Z" fill="#33A100"/>
<path fill-rule="evenodd" clip-rule="evenodd" d="M1840.03 159.953L1840.03 79.9937C1795.86 79.9937 1760.06 115.795 1760.06 159.953L1840.03 159.953Z" fill="#FFD105"/>
<path fill-rule="evenodd" clip-rule="evenodd" d="M1760.12 240.182C1760.12 284.34 1795.92 320.141 1840.08 320.141C1840.09 275.984 1804.29 240.182 1760.13 240.182L1760.12 240.182Z" fill="#DB0000"/>
<path d="M1520 240.145L1520 160.137L1439.98 160.137L1439.98 240.145L1520 240.145Z" fill="#33A100"/>
<path fill-rule="evenodd" clip-rule="evenodd" d="M1520 160.137C1475.8 160.137 1439.98 195.951 1439.98 240.145L1520 240.145L1520 160.137Z" fill="#FFD105"/>
<path fill-rule="evenodd" clip-rule="evenodd" d="M1679.96 160.186L1599.94 160.137L1600.04 240.182L1680.06 240.182L1679.96 160.186Z" fill="#FFC82A"/>
<path fill-rule="evenodd" clip-rule="evenodd" d="M1679.96 160.186L1599.94 160.137L1600.03 240.182C1644.21 240.182 1680.01 204.356 1679.95 160.186L1679.96 160.186Z" fill="#DB0000"/>
<path fill-rule="evenodd" clip-rule="evenodd" d="M1599.96 240.096L1599.88 160.088L1519.86 160.174C1519.91 204.356 1555.77 240.133 1599.96 240.084L1599.96 240.096Z" fill="#FFD105"/>
<path fill-rule="evenodd" clip-rule="evenodd" d="M1439.98 160.137L1520 160.137L1520 80.1289C1475.8 80.1289 1439.98 115.942 1439.98 160.137Z" fill="#0042C8"/>
<path fill-rule="evenodd" clip-rule="evenodd" d="M1439.98 0.120846L1439.98 80.129L1520 80.1291C1520 35.9467 1484.17 0.120848 1439.99 0.120846L1439.98 0.120846Z" fill="#DB0000"/>
<path fill-rule="evenodd" clip-rule="evenodd" d="M1520 80.1289L1520 160.137L1600.02 160.137C1600.02 115.955 1564.19 80.1289 1520.01 80.1289L1520 80.1289Z" fill="#33A100"/>
<path fill-rule="evenodd" clip-rule="evenodd" d="M1520 80.129L1600.02 80.1291L1600.02 0.12085C1555.82 0.120848 1520 35.9467 1520 80.129Z" fill="#FFD105"/>
<path fill-rule="evenodd" clip-rule="evenodd" d="M1520 80.129C1564.19 80.129 1600.02 44.3155 1600.02 0.12085C1555.82 0.120848 1520 35.9467 1520 80.129Z" fill="#0042C8"/>
<path fill-rule="evenodd" clip-rule="evenodd" d="M1680.04 80.1289C1635.84 80.1289 1600.02 115.942 1600.02 160.137L1680.04 160.137L1680.04 80.1289Z" fill="#0042C8"/>
<path d="M1760.06 160.137L1760.06 80.1289L1680.04 80.1289L1680.04 160.137L1760.06 160.137Z" fill="#FFD105"/>
<path fill-rule="evenodd" clip-rule="evenodd" d="M1600.03 0.120846L1600.02 80.129L1680.04 80.1291C1680.04 35.9467 1644.21 0.120848 1600.03 0.120846Z" fill="#33A100"/>
<path fill-rule="evenodd" clip-rule="evenodd" d="M1680.04 80.129C1724.23 80.129 1760.06 44.3155 1760.06 0.12085C1715.86 0.120848 1680.04 35.9467 1680.04 80.129Z" fill="#FFD105"/>
<path fill-rule="evenodd" clip-rule="evenodd" d="M1760.06 239.961L1760.06 159.953L1680.04 159.953C1680.04 204.135 1715.85 239.961 1760.05 239.961L1760.06 239.961Z" fill="#0042C8"/>
<path fill-rule="evenodd" clip-rule="evenodd" d="M1920 159.953L1840.03 159.953C1840.03 204.11 1875.83 239.912 1919.99 239.912L1920 159.953Z" fill="#0042C8"/>
<path fill-rule="evenodd" clip-rule="evenodd" d="M1920 79.9937L1840.03 79.9936C1840.03 124.151 1875.83 159.953 1919.99 159.953L1920 79.9937Z" fill="#FFD105"/>
<path fill-rule="evenodd" clip-rule="evenodd" d="M1840.03 79.9936L1920 79.9936C1920 35.8359 1884.2 0.0346664 1840.04 0.0346645L1840.03 79.9936Z" fill="#0042C8"/>
<path fill-rule="evenodd" clip-rule="evenodd" d="M1840.03 79.9936L1760.06 79.9936C1760.06 35.8359 1795.86 0.034666 1840.02 0.034668L1840.03 79.9936Z" fill="#33A100"/>
<path fill-rule="evenodd" clip-rule="evenodd" d="M1840.04 79.9936C1840.03 124.151 1875.83 159.953 1919.99 159.953C1920 115.795 1884.2 79.9937 1840.04 79.9936Z" fill="#DB0000"/>
<path fill-rule="evenodd" clip-rule="evenodd" d="M1680.07 79.9936C1680.06 124.151 1715.86 159.953 1760.02 159.953C1760.03 115.795 1724.23 79.9937 1680.07 79.9936Z" fill="#33A100"/>
<path fill-rule="evenodd" clip-rule="evenodd" d="M1600.05 320.092C1600.04 275.934 1635.84 240.133 1680 240.133C1680.01 284.291 1644.21 320.092 1600.05 320.092Z" fill="#33A100"/>
<path fill-rule="evenodd" clip-rule="evenodd" d="M1840.04 79.9936C1840.03 124.151 1875.83 159.953 1919.99 159.953C1920 115.795 1884.2 79.9937 1840.04 79.9936Z" fill="#DB0000"/>
<path fill-rule="evenodd" clip-rule="evenodd" d="M1840.04 79.9936C1840.03 124.151 1875.83 159.953 1919.99 159.953C1920 115.795 1884.2 79.9937 1840.04 79.9936Z" fill="#DB0000"/>
<path fill-rule="evenodd" clip-rule="evenodd" d="M0.000114441 240.194C0.000112511 284.352 35.8014 320.153 79.9591 320.153L79.9714 240.194L0.000114441 240.194Z" fill="#DB0000"/>
<path d="M320.058 320.153L320.058 240.194L240.086 240.194L240.086 320.153L320.058 320.153Z" fill="#DB0000"/>
<path fill-rule="evenodd" clip-rule="evenodd" d="M240.086 320.153L320.058 320.153L320.058 240.194C275.888 240.194 240.086 275.996 240.086 320.153Z" fill="#FFD105"/>
<path fill-rule="evenodd" clip-rule="evenodd" d="M159.955 320.153L79.9836 320.153L79.9836 240.194C124.154 240.194 159.955 275.996 159.955 320.153Z" fill="#33A100"/>
<path fill-rule="evenodd" clip-rule="evenodd" d="M400.054 240.194L400.054 320.153C444.224 320.153 480.025 284.352 480.025 240.194L400.054 240.194Z" fill="#33A100"/>
<path fill-rule="evenodd" clip-rule="evenodd" d="M320.082 159.952L320.082 239.911C364.252 239.911 400.054 204.11 400.054 159.952L320.082 159.952Z" fill="#33A100"/>
<path fill-rule="evenodd" clip-rule="evenodd" d="M400.054 159.952L400.054 79.9934C355.884 79.9934 320.082 115.795 320.082 159.952L400.054 159.952Z" fill="#FFD105"/>
<path fill-rule="evenodd" clip-rule="evenodd" d="M320.144 240.194C320.144 284.352 355.945 320.153 400.103 320.153C400.115 275.996 364.314 240.194 320.156 240.194L320.144 240.194Z" fill="#DB0000"/>
<path d="M80.0207 240.145L80.0207 160.137L0.000167847 160.137L0.000164349 240.145L80.0207 240.145Z" fill="#33A100"/>
<path fill-rule="evenodd" clip-rule="evenodd" d="M80.0207 160.137C35.826 160.137 0.000166281 195.951 0.000164349 240.145L80.0207 240.145L80.0207 160.137Z" fill="#FFD105"/>
<path fill-rule="evenodd" clip-rule="evenodd" d="M239.988 160.186L159.98 160.149L160.066 240.194L240.086 240.194L239.988 160.186Z" fill="#FFC82A"/>
<path fill-rule="evenodd" clip-rule="evenodd" d="M239.988 160.186L159.967 160.137L160.053 240.182C204.236 240.182 240.037 204.356 239.976 160.186L239.988 160.186Z" fill="#DB0000"/>
<path fill-rule="evenodd" clip-rule="evenodd" d="M159.98 240.096L159.906 160.088L79.8855 160.174C79.9347 204.356 115.797 240.133 159.98 240.084L159.98 240.096Z" fill="#FFD105"/>
<path fill-rule="evenodd" clip-rule="evenodd" d="M0.000164349 160.137L80.0207 160.137L80.0207 80.1287C35.826 80.1287 0.000166281 115.955 0.000164349 160.137Z" fill="#0042C8"/>
<path fill-rule="evenodd" clip-rule="evenodd" d="M0.000167847 0.120602L0.000164349 80.1288L80.0207 80.1288C80.0207 35.9465 44.2071 0.120604 0.0248032 0.120602L0.000167847 0.120602Z" fill="#DB0000"/>
<path fill-rule="evenodd" clip-rule="evenodd" d="M80.0207 80.1287L80.0207 160.137L160.041 160.137C160.041 115.955 124.215 80.1287 80.033 80.1287L80.0207 80.1287Z" fill="#33A100"/>
<path fill-rule="evenodd" clip-rule="evenodd" d="M80.0207 80.1288L160.041 80.1288L160.041 0.120605C115.847 0.120604 80.0207 35.9464 80.0207 80.1288Z" fill="#FFD105"/>
<path fill-rule="evenodd" clip-rule="evenodd" d="M80.0207 80.1288C124.215 80.1288 160.041 44.3153 160.041 0.120605C115.847 0.120604 80.0207 35.9464 80.0207 80.1288Z" fill="#0042C8"/>
<path fill-rule="evenodd" clip-rule="evenodd" d="M240.062 80.1287C195.867 80.1287 160.041 115.955 160.041 160.137L240.062 160.137L240.062 80.1287Z" fill="#0042C8"/>
<path d="M320.082 160.137L320.082 80.1287L240.062 80.1287L240.062 160.137L320.082 160.137Z" fill="#FFD105"/>
<path fill-rule="evenodd" clip-rule="evenodd" d="M160.054 0.120602L160.041 80.1288L240.062 80.1288C240.062 35.9465 204.248 0.120604 160.054 0.120602Z" fill="#33A100"/>
<path fill-rule="evenodd" clip-rule="evenodd" d="M240.062 80.1288C284.257 80.1288 320.082 44.3153 320.082 0.120605C275.888 0.120604 240.062 35.9464 240.062 80.1288Z" fill="#FFD105"/>
<path fill-rule="evenodd" clip-rule="evenodd" d="M320.082 239.961L320.082 159.952L240.062 159.952C240.062 204.135 275.888 239.961 320.07 239.961L320.082 239.961Z" fill="#0042C8"/>
<path fill-rule="evenodd" clip-rule="evenodd" d="M480.025 159.952L400.054 159.952C400.054 204.11 435.855 239.911 480.013 239.911L480.025 159.952Z" fill="#0042C8"/>
<path fill-rule="evenodd" clip-rule="evenodd" d="M480.025 79.9934L400.054 79.9934C400.054 124.151 435.855 159.952 480.013 159.952L480.025 79.9934Z" fill="#FFD105"/>
<path fill-rule="evenodd" clip-rule="evenodd" d="M400.054 79.9934L480.025 79.9934C480.025 35.8357 444.224 0.0344223 400.066 0.0344203L400.054 79.9934Z" fill="#0042C8"/>
<path fill-rule="evenodd" clip-rule="evenodd" d="M400.054 79.9934L320.082 79.9934C320.082 35.8357 355.884 0.0344219 400.041 0.0344238L400.054 79.9934Z" fill="#33A100"/>
<path fill-rule="evenodd" clip-rule="evenodd" d="M400.066 79.9934C400.053 124.151 435.855 159.952 480.012 159.952C480.025 115.795 444.223 79.9934 400.066 79.9934Z" fill="#DB0000"/>
<path fill-rule="evenodd" clip-rule="evenodd" d="M240.099 79.9934C240.087 124.151 275.888 159.952 320.045 159.952C320.058 115.795 284.257 79.9934 240.099 79.9934Z" fill="#33A100"/>
<path fill-rule="evenodd" clip-rule="evenodd" d="M160.078 320.104C160.066 275.946 195.867 240.145 240.025 240.145C240.037 284.303 204.236 320.104 160.078 320.104Z" fill="#33A100"/>
<path fill-rule="evenodd" clip-rule="evenodd" d="M400.066 79.9934C400.053 124.151 435.855 159.952 480.012 159.952C480.025 115.795 444.223 79.9934 400.066 79.9934Z" fill="#DB0000"/>
<path fill-rule="evenodd" clip-rule="evenodd" d="M400.066 79.9934C400.053 124.151 435.855 159.952 480.012 159.952C480.025 115.795 444.223 79.9934 400.066 79.9934Z" fill="#DB0000"/>
<path fill-rule="evenodd" clip-rule="evenodd" d="M959.951 240.182C959.951 284.34 995.752 320.141 1039.91 320.141L1039.92 240.182L959.951 240.182Z" fill="#DB0000"/>
<path d="M1280.01 320.141L1280.01 240.182L1200.04 240.182L1200.04 320.141L1280.01 320.141Z" fill="#DB0000"/>
<path fill-rule="evenodd" clip-rule="evenodd" d="M1200.04 320.141L1280.01 320.141L1280.01 240.182C1235.84 240.182 1200.04 275.984 1200.04 320.141Z" fill="#FFD105"/>
<path fill-rule="evenodd" clip-rule="evenodd" d="M1119.91 320.141L1039.93 320.141L1039.93 240.182C1084.1 240.182 1119.91 275.984 1119.91 320.141Z" fill="#33A100"/>
<path fill-rule="evenodd" clip-rule="evenodd" d="M1360 240.182L1360 320.141C1404.17 320.141 1439.98 284.34 1439.98 240.182L1360 240.182Z" fill="#33A100"/>
<path fill-rule="evenodd" clip-rule="evenodd" d="M1280.03 159.953L1280.03 239.912C1324.2 239.912 1360 204.11 1360 159.953L1280.03 159.953Z" fill="#33A100"/>
<path fill-rule="evenodd" clip-rule="evenodd" d="M1360 159.953L1360 79.9937C1315.83 79.9937 1280.03 115.795 1280.03 159.953L1360 159.953Z" fill="#FFD105"/>
<path fill-rule="evenodd" clip-rule="evenodd" d="M1280.09 240.182C1280.09 284.34 1315.9 320.141 1360.05 320.141C1360.07 275.984 1324.27 240.182 1280.11 240.182L1280.09 240.182Z" fill="#DB0000"/>
<path d="M1039.97 240.145L1039.97 160.137L959.951 160.137L959.951 240.145L1039.97 240.145Z" fill="#33A100"/>
<path fill-rule="evenodd" clip-rule="evenodd" d="M1039.97 160.137C995.777 160.137 959.951 195.951 959.951 240.145L1039.97 240.145L1039.97 160.137Z" fill="#FFD105"/>
<path fill-rule="evenodd" clip-rule="evenodd" d="M1199.94 160.186L1119.93 160.137L1120.02 240.182L1200.04 240.182L1199.94 160.186Z" fill="#FFC82A"/>
<path fill-rule="evenodd" clip-rule="evenodd" d="M1199.94 160.186L1119.92 160.137L1120 240.182C1164.19 240.182 1199.99 204.356 1199.93 160.186L1199.94 160.186Z" fill="#DB0000"/>
<path fill-rule="evenodd" clip-rule="evenodd" d="M1119.93 240.096L1119.86 160.088L1039.84 160.174C1039.89 204.356 1075.75 240.133 1119.93 240.084L1119.93 240.096Z" fill="#FFD105"/>
<path fill-rule="evenodd" clip-rule="evenodd" d="M959.951 160.137L1039.97 160.137L1039.97 80.1289C995.777 80.1289 959.951 115.942 959.951 160.137Z" fill="#0042C8"/>
<path fill-rule="evenodd" clip-rule="evenodd" d="M959.951 0.120846L959.951 80.129L1039.97 80.1291C1039.97 35.9467 1004.15 0.120848 959.963 0.120846L959.951 0.120846Z" fill="#DB0000"/>
<path fill-rule="evenodd" clip-rule="evenodd" d="M1039.97 80.1289L1039.97 160.137L1119.99 160.137C1119.99 115.955 1084.17 80.1289 1039.98 80.1289L1039.97 80.1289Z" fill="#33A100"/>
<path fill-rule="evenodd" clip-rule="evenodd" d="M1039.97 80.129L1119.99 80.1291L1119.99 0.12085C1075.8 0.120848 1039.97 35.9467 1039.97 80.129Z" fill="#FFD105"/>
<path fill-rule="evenodd" clip-rule="evenodd" d="M1039.97 80.129C1084.17 80.129 1119.99 44.3155 1119.99 0.12085C1075.8 0.120848 1039.97 35.9467 1039.97 80.129Z" fill="#0042C8"/>
<path fill-rule="evenodd" clip-rule="evenodd" d="M1200.01 80.1289C1155.82 80.1289 1119.99 115.942 1119.99 160.137L1200.01 160.137L1200.01 80.1289Z" fill="#0042C8"/>
<path d="M1280.03 160.137L1280.03 80.1289L1200.01 80.1289L1200.01 160.137L1280.03 160.137Z" fill="#FFD105"/>
<path fill-rule="evenodd" clip-rule="evenodd" d="M1120 0.120846L1119.99 80.129L1200.01 80.1291C1200.01 35.9467 1164.19 0.120848 1120 0.120846Z" fill="#33A100"/>
<path fill-rule="evenodd" clip-rule="evenodd" d="M1200.01 80.129C1244.21 80.129 1280.03 44.3155 1280.03 0.12085C1235.84 0.120848 1200.01 35.9467 1200.01 80.129Z" fill="#FFD105"/>
<path fill-rule="evenodd" clip-rule="evenodd" d="M1280.03 239.961L1280.03 159.953L1200.01 159.953C1200.01 204.135 1235.84 239.961 1280.02 239.961L1280.03 239.961Z" fill="#0042C8"/>
<path fill-rule="evenodd" clip-rule="evenodd" d="M1439.98 159.953L1360 159.953C1360 204.11 1395.81 239.912 1439.96 239.912L1439.98 159.953Z" fill="#0042C8"/>
<path fill-rule="evenodd" clip-rule="evenodd" d="M1439.98 79.9937L1360 79.9936C1360 124.151 1395.81 159.953 1439.96 159.953L1439.98 79.9937Z" fill="#FFD105"/>
<path fill-rule="evenodd" clip-rule="evenodd" d="M1360 79.9936L1439.98 79.9936C1439.98 35.8359 1404.17 0.0346664 1360.02 0.0346645L1360 79.9936Z" fill="#0042C8"/>
<path fill-rule="evenodd" clip-rule="evenodd" d="M1360 79.9936L1280.03 79.9936C1280.03 35.8359 1315.83 0.034666 1359.99 0.034668L1360 79.9936Z" fill="#33A100"/>
<path fill-rule="evenodd" clip-rule="evenodd" d="M1360.02 79.9936C1360 124.151 1395.81 159.953 1439.96 159.953C1439.98 115.795 1404.17 79.9937 1360.02 79.9936Z" fill="#DB0000"/>
<path fill-rule="evenodd" clip-rule="evenodd" d="M1200.05 79.9936C1200.04 124.151 1235.84 159.953 1280 159.953C1280.01 115.795 1244.21 79.9937 1200.05 79.9936Z" fill="#33A100"/>
<path fill-rule="evenodd" clip-rule="evenodd" d="M1120.03 320.092C1120.02 275.934 1155.82 240.133 1199.98 240.133C1199.99 284.291 1164.19 320.092 1120.03 320.092Z" fill="#33A100"/>
<path fill-rule="evenodd" clip-rule="evenodd" d="M1360.02 79.9936C1360 124.151 1395.81 159.953 1439.96 159.953C1439.98 115.795 1404.17 79.9937 1360.02 79.9936Z" fill="#DB0000"/>
<path fill-rule="evenodd" clip-rule="evenodd" d="M1360.02 79.9936C1360 124.151 1395.81 159.953 1439.96 159.953C1439.98 115.795 1404.17 79.9937 1360.02 79.9936Z" fill="#DB0000"/>
</g>
</svg>
