<svg width="152" height="53" viewBox="0 0 152 53" fill="none" xmlns="http://www.w3.org/2000/svg">
<g clip-path="url(#clip0_2458_1034)">
<path d="M5.50408 40.6093C3.2484 40.1515 1.49042 39.5198 0.230126 38.7168V32.579C1.72053 33.4971 3.49725 34.2332 5.56294 34.7873C7.62597 35.3414 9.5766 35.6198 11.4122 35.6198C13.2478 35.6198 14.5857 35.4565 15.4258 35.1326C16.266 34.8087 16.6861 34.2064 16.6861 33.3258C16.6861 32.6378 16.4667 32.073 16.0279 31.6341C15.5891 31.1951 14.88 30.7936 13.906 30.4295C12.932 30.0655 11.4309 29.6185 9.40536 29.0804C7.11222 28.43 5.30607 27.7608 3.98691 27.0728C2.66776 26.3849 1.67237 25.515 1.0061 24.463C0.337157 23.411 0.00268555 22.0459 0.00268555 20.3622C0.00268555 17.6078 1.09173 15.536 3.26981 14.1387C5.44789 12.7441 8.39124 12.0455 12.0999 12.0455C14.0104 12.0455 15.9128 12.2275 17.8046 12.5915C19.6964 12.9556 21.1788 13.4615 22.2491 14.1119V20.0196C21.1012 19.3316 19.7071 18.7775 18.0642 18.3573C16.4212 17.937 14.7382 17.7256 13.0177 17.7256C11.1446 17.7256 9.72912 17.9076 8.77387 18.2716C7.81862 18.6357 7.33966 19.3316 7.33966 20.3649C7.33966 21.0528 7.59653 21.5989 8.11296 22.0004C8.62938 22.4019 9.30635 22.7472 10.1492 23.0336C10.9894 23.32 12.52 23.751 14.7355 24.3238C17.1062 24.9743 18.9579 25.6809 20.2984 26.4465C21.6363 27.212 22.5916 28.1302 23.1642 29.2009C23.7368 30.2716 24.0231 31.61 24.0231 33.216C24.0231 35.6626 22.9822 37.6247 20.8978 39.0942C18.8134 40.5664 15.8031 41.3025 11.8671 41.3025C9.87897 41.3025 7.75708 41.0723 5.5014 40.6146L5.50408 40.6093Z" fill="#161179"/>
<path d="M30.932 6.94087C30.148 6.17531 29.7573 5.21971 29.7573 4.07405C29.7573 2.92839 30.148 1.96208 30.932 1.17779C31.716 0.393494 32.6819 0.00268555 33.8272 0.00268555C34.9724 0.00268555 35.9491 0.39617 36.7518 1.17779C37.5545 1.96208 37.9559 2.92839 37.9559 4.07405C37.9559 5.21971 37.5545 6.17799 36.7518 6.94087C35.9491 7.70642 34.9751 8.0892 33.8272 8.0892C32.6793 8.0892 31.7133 7.70642 30.932 6.94087ZM30.1587 12.9047H37.4983V40.4379H30.1587V12.9047Z" fill="#161179"/>
<path d="M49.1941 40.6093C46.9385 40.1515 45.1805 39.5198 43.9202 38.7168V32.579C45.4106 33.4971 47.1873 34.2332 49.253 34.7873C51.316 35.3414 53.2667 35.6198 55.1022 35.6198C56.9378 35.6198 58.2757 35.4565 59.1159 35.1326C59.9561 34.8087 60.3762 34.2064 60.3762 33.3258C60.3762 32.6378 60.1568 32.073 59.718 31.6341C59.2791 31.1951 58.5701 30.7936 57.5961 30.4295C56.6221 30.0655 55.121 29.6185 53.0954 29.0804C50.8023 28.43 48.9961 27.7608 47.677 27.0728C46.3578 26.3849 45.3624 25.515 44.6962 24.463C44.0272 23.411 43.6927 22.0459 43.6927 20.3622C43.6927 17.6078 44.7818 15.536 46.9599 14.1387C49.1379 12.7441 52.0813 12.0455 55.7899 12.0455C57.7004 12.0455 59.6029 12.2275 61.4947 12.5915C63.3864 12.9556 64.8688 13.4615 65.9391 14.1119V20.0196C64.7912 19.3316 63.3971 18.7775 61.7542 18.3573C60.1113 17.937 58.4282 17.7256 56.7077 17.7256C54.8347 17.7256 53.4192 17.9076 52.4639 18.2716C51.5087 18.6357 51.0297 19.3316 51.0297 20.3649C51.0297 21.0528 51.2866 21.5989 51.803 22.0004C52.3194 22.4019 52.9964 22.7472 53.8393 23.0336C54.6795 23.32 56.21 23.751 58.4256 24.3238C60.7963 24.9743 62.6479 25.6809 63.9885 26.4465C65.3264 27.212 66.2816 28.1302 66.8542 29.2009C67.4269 30.2716 67.7132 31.61 67.7132 33.216C67.7132 35.6626 66.6723 37.6247 64.5879 39.0942C62.5034 40.5664 59.4932 41.3025 55.5571 41.3025C53.569 41.3025 51.4471 41.0723 49.1915 40.6146L49.1941 40.6093Z" fill="#161179"/>
<path d="M74.5953 38.6873C72.4921 36.9474 71.4406 34.6053 71.4406 31.6608C71.4406 28.7164 72.4333 26.2109 74.4214 24.4898C76.4095 22.7686 79.2003 21.9093 82.7939 21.9093C86.3874 21.9093 89.2719 22.6187 91.7952 24.032V23.2852C91.7952 21.3338 91.1931 19.9205 89.989 19.0399C88.7849 18.1592 86.845 17.7202 84.1692 17.7202C82.4861 17.7202 80.8245 17.8835 79.1816 18.2074C77.5386 18.5339 76.0857 18.981 74.8227 19.5565V13.879C75.9706 13.3437 77.5065 12.9047 79.4384 12.5594C81.3677 12.2141 83.2327 12.0428 85.0281 12.0428C89.8071 12.0428 93.3418 13.0653 95.6349 15.1104C97.928 17.1554 99.0759 19.9955 99.0759 23.6278V40.4353H92.2527V37.7398C91.0674 38.8881 89.7188 39.7661 88.2096 40.379C86.6978 40.9893 84.8542 41.2972 82.6761 41.2972C79.3876 41.2972 76.6931 40.4272 74.5926 38.6873H74.5953ZM88.8144 35.0764C90.1121 34.4446 91.1075 33.5747 91.7952 32.4665V29.4257C89.692 27.9348 87.2838 27.1879 84.5706 27.1879C80.7094 27.1879 78.7802 28.6789 78.7802 31.6608C78.7802 33.1143 79.2672 34.2037 80.2412 34.9291C81.2152 35.6572 82.6199 36.0186 84.4555 36.0186C86.061 36.0186 87.5139 35.7027 88.8144 35.071V35.0764Z" fill="#161179"/>
<path d="M105.672 12.9047H112.666V16.2319C114.156 14.8186 115.781 13.7666 117.539 13.076C119.297 12.3881 121.303 12.0428 123.559 12.0428C126.35 12.0428 128.844 12.6451 131.041 13.8496C133.237 15.0541 134.958 16.7566 136.202 18.9542C137.444 21.1545 138.065 23.7055 138.065 26.6124C138.065 29.5194 137.444 32.0249 136.202 34.2412C134.961 36.4603 133.24 38.1895 131.041 39.4315C128.841 40.6735 126.347 41.2945 123.559 41.2945C121.456 41.2945 119.479 40.9974 117.624 40.4058C115.77 39.8142 114.194 38.9256 112.894 37.7398V52.9973H105.669V12.9047H105.672ZM128.204 33.0956C129.887 31.4146 130.728 29.2517 130.728 26.6151C130.728 23.9785 129.887 21.8344 128.204 20.1909C126.521 18.5473 124.381 17.7256 121.782 17.7256C119.719 17.7256 117.884 18.2797 116.278 19.3878C114.673 20.4987 113.544 21.9897 112.896 23.8607V29.4257C113.506 31.2995 114.625 32.8011 116.252 33.928C117.876 35.0576 119.719 35.6198 121.785 35.6198C124.383 35.6198 126.524 34.7792 128.207 33.0956H128.204Z" fill="#161179"/>
<path d="M144.976 6.94087C144.192 6.17531 143.802 5.21971 143.802 4.07405C143.802 2.92839 144.192 1.96208 144.976 1.17779C145.76 0.393494 146.726 0.00268555 147.871 0.00268555C149.017 0.00268555 149.993 0.39617 150.796 1.17779C151.599 1.96208 152 2.92839 152 4.07405C152 5.21971 151.599 6.17799 150.796 6.94087C149.993 7.70642 149.019 8.0892 147.871 8.0892C146.723 8.0892 145.758 7.70642 144.976 6.94087ZM144.203 12.9047H151.543V40.4379H144.203V12.9047Z" fill="#161179"/>
<path d="M1.78742 52.917C1.47168 52.8608 1.20677 52.7859 0.987361 52.6922V52.0257C1.50646 52.2585 2.09513 52.3736 2.75337 52.3736C3.41161 52.3736 3.91733 52.2211 4.23575 51.9159C4.55417 51.6108 4.71204 51.1504 4.71204 50.5347V49.8066C4.26786 50.4651 3.56146 50.7917 2.59818 50.7917C2.11119 50.7917 1.66968 50.6846 1.27367 50.4678C0.877654 50.251 0.564588 49.9458 0.339823 49.5496C0.115058 49.1535 0 48.6984 0 48.1845C0 47.6706 0.112382 47.2048 0.339823 46.8086C0.564588 46.4125 0.874978 46.1046 1.26297 45.8851C1.65363 45.6657 2.08978 45.5559 2.57677 45.5559C3.06376 45.5559 3.50526 45.6335 3.83974 45.7861C4.17421 45.9414 4.47389 46.193 4.73344 46.541V45.7085H5.50407V50.433C5.50407 51.2681 5.2793 51.9052 4.8271 52.3442C4.37489 52.7832 3.68454 53.0027 2.75337 53.0027C2.42425 53.0027 2.10316 52.9759 1.78742 52.9197V52.917ZM3.99225 49.7959C4.34011 49.5496 4.58092 49.2097 4.71204 48.7787V47.5555C4.57557 47.1245 4.33208 46.7899 3.98423 46.549C3.63638 46.3081 3.22163 46.1903 2.74267 46.1903C2.37876 46.1903 2.04964 46.2733 1.75263 46.4419C1.45562 46.6106 1.22015 46.8434 1.0489 47.1459C0.877654 47.4484 0.792029 47.7937 0.792029 48.1845C0.792029 48.5753 0.877654 48.9286 1.0489 49.2258C1.22015 49.5229 1.45562 49.7558 1.75263 49.919C2.04964 50.0823 2.38144 50.1653 2.74267 50.1653C3.22966 50.1653 3.64708 50.0422 3.99493 49.7959H3.99225Z" fill="#161179"/>
<path d="M7.48943 50.1037C6.98639 49.646 6.73486 49.0063 6.73486 48.1845C6.73486 47.3627 6.95963 46.7364 7.41183 46.2653C7.86404 45.7941 8.50623 45.5559 9.34107 45.5559C9.90298 45.5559 10.3793 45.663 10.7673 45.8798C11.1579 46.0966 11.4523 46.3911 11.6503 46.7685C11.8483 47.1459 11.9473 47.5742 11.9473 48.0533V48.4843H7.4707C7.49746 49.0464 7.70617 49.4667 8.09148 49.7477C8.47679 50.0288 9.00392 50.168 9.66751 50.168C9.9886 50.168 10.3043 50.1385 10.6174 50.0796C10.9278 50.0208 11.2088 49.9405 11.4549 49.8387V50.5052C11.2489 50.5882 10.9706 50.6551 10.6174 50.7114C10.2642 50.7649 9.92171 50.7943 9.58456 50.7943C8.68818 50.7943 7.98713 50.5641 7.48408 50.1064L7.48943 50.1037ZM11.2088 47.9168C11.1954 47.3815 11.0295 46.9612 10.7164 46.6534C10.4007 46.3456 9.94044 46.1903 9.33036 46.1903C8.72029 46.1903 8.27878 46.3482 7.96572 46.6668C7.64998 46.9853 7.48676 47.4002 7.47338 47.9141H11.2088V47.9168Z" fill="#161179"/>
<path d="M13.8579 50.6525C13.4886 50.5588 13.1996 50.4464 12.9963 50.3072V49.6406C13.2558 49.7986 13.5555 49.9244 13.8953 50.0207C14.2352 50.1171 14.5616 50.1653 14.8747 50.1653C15.3001 50.1653 15.6051 50.1064 15.7925 49.986C15.9798 49.8655 16.0761 49.6862 16.0761 49.4479C16.0761 49.2632 16.0359 49.1187 15.953 49.0116C15.8701 48.9045 15.7336 48.8108 15.5436 48.7279C15.351 48.6449 15.0539 48.5512 14.6499 48.4415C14.2539 48.3317 13.9355 48.2166 13.7 48.0962C13.4645 47.9757 13.2853 47.8231 13.1622 47.6384C13.0391 47.4537 12.9775 47.2182 12.9775 46.9291C12.9775 46.4847 13.1568 46.1448 13.5154 45.9066C13.8739 45.671 14.3529 45.5532 14.9469 45.5532C15.268 45.5532 15.5704 45.5827 15.8567 45.6416C16.1403 45.7004 16.3784 45.7808 16.5711 45.8825V46.549C16.3731 46.4392 16.1323 46.3536 15.8513 46.2867C15.5704 46.2224 15.2787 46.1903 14.979 46.1903C14.583 46.1903 14.2806 46.2492 14.0746 46.3643C13.8686 46.4821 13.7669 46.6694 13.7669 46.9291C13.7669 47.1084 13.8017 47.2449 13.8739 47.3386C13.9462 47.435 14.08 47.5206 14.2753 47.601C14.4706 47.6786 14.7837 47.7776 15.2145 47.8927C15.8299 48.064 16.2607 48.2648 16.5015 48.4923C16.745 48.7225 16.8654 49.0384 16.8654 49.4426C16.8654 49.8468 16.7022 50.1894 16.3784 50.4276C16.0547 50.6659 15.5597 50.7863 14.8961 50.7863C14.575 50.7863 14.2298 50.7408 13.8605 50.6471L13.8579 50.6525Z" fill="#161179"/>
<path d="M18.6876 50.3821C18.4307 50.1091 18.3022 49.7183 18.3022 49.2124V46.3268H17.5316V45.7112H18.3022V44.2336H19.0916V45.7112H20.3332V46.3268H19.0916V49.2338C19.0916 49.5764 19.1612 49.8173 19.2976 49.9565C19.4341 50.0957 19.6829 50.168 20.0468 50.168C20.2234 50.168 20.4134 50.1278 20.6114 50.0448V50.6926C20.3867 50.7622 20.1057 50.7943 19.7686 50.7943C19.303 50.7943 18.9418 50.6578 18.6849 50.3848L18.6876 50.3821Z" fill="#161179"/>
<path d="M21.8504 50.3446C21.5052 50.0475 21.3313 49.638 21.3313 49.1187C21.3313 48.5994 21.4999 48.1631 21.8343 47.8713C22.1688 47.5795 22.6558 47.435 23.2926 47.435C24.0044 47.435 24.6171 47.5822 25.1309 47.8767V47.5073C25.1309 47.0629 25.0051 46.731 24.7509 46.5169C24.4967 46.3027 24.098 46.193 23.5495 46.193C22.9689 46.193 22.431 46.3027 21.9387 46.5222V45.8557C22.1447 45.7674 22.4043 45.6951 22.72 45.6389C23.0358 45.5854 23.3355 45.5559 23.6244 45.5559C24.4058 45.5559 24.9837 45.7326 25.3583 46.0859C25.7356 46.4392 25.9229 46.9264 25.9229 47.5501V50.6418H25.1844V50.0047C24.7536 50.532 24.1141 50.7943 23.2659 50.7943C22.6692 50.7943 22.2009 50.6444 21.8531 50.3473L21.8504 50.3446ZM22.019 44.4343C22.2116 44.1399 22.5354 43.9927 22.993 43.9927C23.1428 43.9927 23.2873 44.0141 23.4238 44.0542C23.5602 44.0944 23.7341 44.1613 23.9482 44.2496C24.1248 44.3326 24.2827 44.3942 24.4191 44.4397C24.5556 44.4852 24.7001 44.5066 24.8499 44.5066C25.0479 44.5066 25.2272 44.4665 25.3878 44.3835C25.5483 44.3005 25.6928 44.164 25.8239 43.9739V44.6833C25.6313 44.9697 25.3075 45.1142 24.8499 45.1142C24.6787 45.1142 24.5181 45.0928 24.3683 45.0473C24.2185 45.0018 24.0472 44.9349 23.8546 44.8466C23.6619 44.7636 23.5067 44.702 23.3863 44.6619C23.2659 44.6217 23.1348 44.6003 22.9903 44.6003C22.7976 44.6003 22.6237 44.6405 22.4658 44.7234C22.308 44.8064 22.1581 44.9456 22.0136 45.1437V44.4343H22.019ZM24.4566 49.9244C24.7536 49.7772 24.9784 49.5711 25.1282 49.3034V48.5137C24.8606 48.3558 24.5957 48.2407 24.3335 48.1684C24.0713 48.0962 23.7743 48.0614 23.4452 48.0614C22.9796 48.0614 22.6424 48.1497 22.4337 48.3237C22.225 48.4977 22.1207 48.7627 22.1207 49.1187C22.1207 49.8039 22.5648 50.1466 23.4559 50.1466C23.8251 50.1466 24.1596 50.0743 24.4566 49.9244Z" fill="#161179"/>
<path d="M28.1518 50.4731C27.7371 50.2617 27.416 49.9592 27.1859 49.563C26.9558 49.1695 26.8407 48.7091 26.8407 48.1818C26.8407 47.6545 26.9584 47.2021 27.1885 46.806C27.4213 46.4098 27.7451 46.102 28.1599 45.8825C28.5746 45.663 29.0455 45.5532 29.57 45.5532C30.0944 45.5532 30.5681 45.663 30.9801 45.8825C31.3949 46.102 31.7186 46.4098 31.9514 46.806C32.1842 47.2021 32.2993 47.6625 32.2993 48.1818C32.2993 48.7011 32.1842 49.1695 31.9541 49.563C31.724 49.9565 31.4029 50.259 30.9881 50.4731C30.5734 50.6846 30.0998 50.7917 29.5673 50.7917C29.0348 50.7917 28.5585 50.6846 28.1465 50.4731H28.1518ZM30.9855 49.6273C31.3387 49.2686 31.5153 48.7868 31.5153 48.1845C31.5153 47.5822 31.3387 47.0897 30.9855 46.731C30.6323 46.3723 30.1613 46.193 29.5753 46.193C28.9893 46.193 28.5157 46.3723 28.1652 46.731C27.812 47.0897 27.6354 47.5742 27.6354 48.1845C27.6354 48.7948 27.812 49.2686 28.1652 49.6273C28.5184 49.986 28.9893 50.1653 29.5753 50.1653C30.1613 50.1653 30.6349 49.986 30.9855 49.6273Z" fill="#161179"/>
<path d="M38.4937 50.4732C38.103 50.2617 37.7953 49.9565 37.5705 49.5604C37.3458 49.1642 37.2307 48.7038 37.2307 48.1845C37.2307 47.6652 37.3431 47.2128 37.5652 46.814C37.7873 46.4125 38.095 46.1047 38.4883 45.8852C38.8817 45.6657 39.3205 45.5559 39.8075 45.5559C40.2945 45.5559 40.6985 45.6389 41.0651 45.8075C41.4317 45.9762 41.7233 46.2198 41.9428 46.541V43.0505H42.7321V50.6391H41.9615V49.7772C41.7019 50.1198 41.3942 50.3741 41.0437 50.5427C40.6905 50.7114 40.2784 50.7944 39.8075 50.7944C39.3365 50.7944 38.8843 50.6873 38.4937 50.4758V50.4732ZM41.2096 49.8013C41.5628 49.5577 41.8063 49.2258 41.9428 48.8002V47.5689C41.8116 47.1433 41.5708 46.8087 41.2203 46.5624C40.8671 46.3161 40.4523 46.193 39.9734 46.193C39.6095 46.193 39.2804 46.276 38.9833 46.4446C38.6863 46.6133 38.4509 46.8461 38.2796 47.1486C38.1084 47.4511 38.0227 47.7964 38.0227 48.1872C38.0227 48.578 38.1084 48.9233 38.2796 49.2231C38.4509 49.5256 38.6863 49.7585 38.9833 49.9217C39.2804 50.085 39.6122 50.168 39.9734 50.168C40.4443 50.168 40.8591 50.0475 41.2096 49.804V49.8013Z" fill="#161179"/>
<path d="M44.7201 50.1037C44.2171 49.646 43.9656 49.0063 43.9656 48.1845C43.9656 47.3627 44.1903 46.7364 44.6425 46.2653C45.0948 45.7941 45.7369 45.5559 46.5718 45.5559C47.1337 45.5559 47.61 45.663 47.998 45.8798C48.3886 46.0966 48.683 46.3911 48.881 46.7685C49.079 47.1459 49.178 47.5742 49.178 48.0533V48.4843H44.7014C44.7282 49.0464 44.9369 49.4667 45.3222 49.7477C45.7075 50.0288 46.2346 50.168 46.8982 50.168C47.2193 50.168 47.5351 50.1385 47.8481 50.0796C48.1585 50.0208 48.4395 49.9405 48.6856 49.8387V50.5052C48.4796 50.5882 48.2013 50.6551 47.8481 50.7114C47.4949 50.7649 47.1524 50.7943 46.8153 50.7943C45.9189 50.7943 45.2178 50.5641 44.7148 50.1064L44.7201 50.1037ZM48.4421 47.9168C48.4288 47.3815 48.2629 46.9612 47.9498 46.6534C47.6341 46.3456 47.1738 46.1903 46.5638 46.1903C45.9537 46.1903 45.5122 46.3482 45.1991 46.6668C44.8834 46.9853 44.7201 47.4002 44.7068 47.9141H48.4421V47.9168Z" fill="#161179"/>
<path d="M54.3129 45.7085H55.0835V46.5597C55.5705 45.8878 56.2876 45.5532 57.2402 45.5532C57.7272 45.5532 58.1633 45.663 58.554 45.8825C58.9446 46.102 59.2523 46.4098 59.4771 46.806C59.7019 47.2021 59.8169 47.6625 59.8169 48.1818C59.8169 48.7011 59.7046 49.1508 59.4825 49.547C59.2604 49.9431 58.9527 50.251 58.5593 50.4651C58.166 50.6819 57.7272 50.789 57.2402 50.789C56.796 50.789 56.3812 50.706 55.9986 50.5374C55.616 50.3687 55.319 50.1251 55.1049 49.8039V52.8849H54.3155V45.7058L54.3129 45.7085ZM58.075 49.919C58.372 49.7558 58.6048 49.5229 58.7734 49.2257C58.942 48.9286 59.0249 48.5806 59.0249 48.1845C59.0249 47.7883 58.942 47.4457 58.7734 47.1432C58.6048 46.8381 58.372 46.6052 58.075 46.4392C57.778 46.276 57.4435 46.193 57.0743 46.193C56.6087 46.193 56.1993 46.3134 55.8488 46.557C55.4956 46.8006 55.2494 47.1352 55.1049 47.5581V48.7814C55.236 49.199 55.4795 49.5336 55.8381 49.7879C56.1966 50.0422 56.6087 50.168 57.0743 50.168C57.4435 50.168 57.778 50.085 58.075 49.9217V49.919Z" fill="#161179"/>
<path d="M61.0477 45.7085H61.8184V46.6748C62.2144 46.0324 62.9582 45.7085 64.0446 45.7085V46.3456C62.8539 46.3456 62.118 46.739 61.8371 47.526V50.6364H61.0477V45.7058V45.7085Z" fill="#161179"/>
<path d="M66.0221 50.4731C65.6073 50.2617 65.2862 49.9592 65.0561 49.563C64.826 49.1695 64.7109 48.7091 64.7109 48.1818C64.7109 47.6545 64.8287 47.2021 65.0588 46.806C65.2916 46.4098 65.6154 46.102 66.0301 45.8825C66.4448 45.663 66.9158 45.5532 67.4402 45.5532C67.9647 45.5532 68.4383 45.663 68.8504 45.8825C69.2651 46.102 69.5889 46.4098 69.8217 46.806C70.0545 47.2021 70.1695 47.6625 70.1695 48.1818C70.1695 48.7011 70.0545 49.1695 69.8243 49.563C69.5942 49.9565 69.2731 50.259 68.8584 50.4731C68.4436 50.6846 67.97 50.7917 67.4376 50.7917C66.9051 50.7917 66.4288 50.6846 66.0167 50.4731H66.0221ZM68.853 49.6273C69.2062 49.2686 69.3828 48.7868 69.3828 48.1845C69.3828 47.5822 69.2062 47.0897 68.853 46.731C68.4998 46.3723 68.0289 46.193 67.4429 46.193C66.8569 46.193 66.3833 46.3723 66.0328 46.731C65.6796 47.0897 65.503 47.5742 65.503 48.1845C65.503 48.7948 65.6796 49.2686 66.0328 49.6273C66.386 49.986 66.8569 50.1653 67.4429 50.1653C68.0289 50.1653 68.5025 49.986 68.853 49.6273Z" fill="#161179"/>
<path d="M72.3636 50.4785C71.9488 50.2697 71.6251 49.9699 71.3923 49.5737C71.1595 49.1802 71.0444 48.7172 71.0444 48.1818C71.0444 47.6465 71.1622 47.1914 71.3976 46.7899C71.6331 46.3884 71.9595 46.0832 72.377 45.8718C72.7944 45.6603 73.2653 45.5532 73.7925 45.5532C74.1697 45.5532 74.5015 45.588 74.7878 45.6549C75.0741 45.7245 75.331 45.8343 75.5585 45.9842V46.6507C75.1277 46.3429 74.5631 46.1876 73.8647 46.1876C73.2626 46.1876 72.773 46.3616 72.3957 46.7123C72.0184 47.0602 71.8311 47.5501 71.8311 48.1818C71.8311 48.8135 72.0184 49.3007 72.3957 49.646C72.773 49.9913 73.2519 50.1653 73.8326 50.1653C74.1938 50.1653 74.5203 50.1251 74.8066 50.0422C75.0929 49.9592 75.3685 49.8334 75.628 49.6621V50.3286C75.3872 50.4919 75.1196 50.6123 74.8226 50.6819C74.5256 50.7542 74.1697 50.789 73.7603 50.789C73.2412 50.789 72.773 50.6846 72.3582 50.4758L72.3636 50.4785Z" fill="#161179"/>
<path d="M77.4155 50.1037C76.9124 49.646 76.6609 49.0063 76.6609 48.1845C76.6609 47.3627 76.8857 46.7364 77.3379 46.2653C77.7901 45.7941 78.4322 45.5559 79.2671 45.5559C79.829 45.5559 80.3053 45.663 80.6933 45.8798C81.0839 46.0966 81.3783 46.3911 81.5763 46.7685C81.7743 47.1459 81.8733 47.5742 81.8733 48.0533V48.4843H77.3967C77.4235 49.0464 77.6322 49.4667 78.0175 49.7477C78.4028 50.0288 78.9299 50.168 79.5935 50.168C79.9146 50.168 80.2304 50.1385 80.5434 50.0796C80.8538 50.0208 81.1348 49.9405 81.381 49.8387V50.5052C81.1749 50.5882 80.8966 50.6551 80.5434 50.7114C80.1902 50.7649 79.8477 50.7943 79.5106 50.7943C78.6142 50.7943 77.9131 50.5641 77.4101 50.1064L77.4155 50.1037ZM81.1375 47.9168C81.1241 47.3815 80.9582 46.9612 80.6451 46.6534C80.3294 46.3456 79.8691 46.1903 79.2591 46.1903C78.649 46.1903 78.2075 46.3482 77.8944 46.6668C77.5787 46.9853 77.4155 47.4002 77.4021 47.9141H81.1375V47.9168Z" fill="#161179"/>
<path d="M83.7838 50.6525C83.4145 50.5588 83.1255 50.4464 82.9222 50.3072V49.6406C83.1817 49.7986 83.4814 49.9244 83.8212 50.0207C84.1611 50.1171 84.4875 50.1653 84.8006 50.1653C85.226 50.1653 85.5311 50.1064 85.7184 49.986C85.9057 49.8655 86.002 49.6862 86.002 49.4479C86.002 49.2632 85.9619 49.1187 85.8789 49.0116C85.796 48.9045 85.6595 48.8108 85.4695 48.7279C85.2769 48.6449 84.9798 48.5512 84.5758 48.4415C84.1798 48.3317 83.8614 48.2166 83.6259 48.0962C83.3904 47.9757 83.2112 47.8231 83.0881 47.6384C82.965 47.4537 82.9034 47.2182 82.9034 46.9291C82.9034 46.4847 83.0827 46.1448 83.4413 45.9066C83.7998 45.671 84.2788 45.5532 84.8728 45.5532C85.1939 45.5532 85.4963 45.5827 85.7826 45.6416C86.0662 45.7004 86.3044 45.7808 86.497 45.8825V46.549C86.299 46.4392 86.0582 46.3536 85.7772 46.2867C85.4963 46.2224 85.2046 46.1903 84.9049 46.1903C84.5089 46.1903 84.2065 46.2492 84.0005 46.3643C83.7945 46.4821 83.6928 46.6694 83.6928 46.9291C83.6928 47.1084 83.7276 47.2449 83.7998 47.3386C83.8721 47.435 84.0059 47.5206 84.2012 47.601C84.3965 47.6786 84.7096 47.7776 85.1404 47.8927C85.7558 48.064 86.1866 48.2648 86.4274 48.4923C86.6709 48.7225 86.7913 49.0384 86.7913 49.4426C86.7913 49.8468 86.6281 50.1894 86.3044 50.4276C85.9806 50.6659 85.4856 50.7863 84.822 50.7863C84.5009 50.7863 84.1557 50.7408 83.7865 50.6471L83.7838 50.6525Z" fill="#161179"/>
<path d="M88.445 50.6525C88.0758 50.5588 87.7868 50.4464 87.5834 50.3072V49.6406C87.843 49.7986 88.1427 49.9244 88.4825 50.0207C88.8223 50.1171 89.1488 50.1653 89.4618 50.1653C89.8873 50.1653 90.1923 50.1064 90.3796 49.986C90.5669 49.8655 90.6632 49.6862 90.6632 49.4479C90.6632 49.2632 90.6231 49.1187 90.5402 49.0116C90.4572 48.9045 90.3207 48.8108 90.1308 48.7279C89.9381 48.6449 89.6411 48.5512 89.2371 48.4415C88.841 48.3317 88.5226 48.2166 88.2872 48.0962C88.0517 47.9757 87.8724 47.8231 87.7493 47.6384C87.6262 47.4537 87.5647 47.2182 87.5647 46.9291C87.5647 46.4847 87.744 46.1448 88.1025 45.9066C88.4611 45.671 88.94 45.5532 89.5341 45.5532C89.8552 45.5532 90.1575 45.5827 90.4438 45.6416C90.7275 45.7004 90.9656 45.7808 91.1583 45.8825V46.549C90.9603 46.4392 90.7194 46.3536 90.4385 46.2867C90.1575 46.2224 89.8659 46.1903 89.5662 46.1903C89.1702 46.1903 88.8678 46.2492 88.6618 46.3643C88.4557 46.4821 88.3541 46.6694 88.3541 46.9291C88.3541 47.1084 88.3888 47.2449 88.4611 47.3386C88.5333 47.435 88.6671 47.5206 88.8624 47.601C89.0578 47.6786 89.3708 47.7776 89.8016 47.8927C90.4171 48.064 90.8479 48.2648 91.0887 48.4923C91.3322 48.7225 91.4526 49.0384 91.4526 49.4426C91.4526 49.8468 91.2894 50.1894 90.9656 50.4276C90.6418 50.6659 90.1468 50.7863 89.4832 50.7863C89.1621 50.7863 88.817 50.7408 88.4477 50.6471L88.445 50.6525Z" fill="#161179"/>
<path d="M93.6334 50.4731C93.2186 50.2617 92.8976 49.9592 92.6674 49.563C92.4373 49.1695 92.3223 48.7091 92.3223 48.1818C92.3223 47.6545 92.44 47.2021 92.6701 46.806C92.9029 46.4098 93.2267 46.102 93.6414 45.8825C94.0562 45.663 94.5271 45.5532 95.0516 45.5532C95.576 45.5532 96.0496 45.663 96.4617 45.8825C96.8764 46.102 97.2002 46.4098 97.433 46.806C97.6658 47.2021 97.7808 47.6625 97.7808 48.1818C97.7808 48.7011 97.6658 49.1695 97.4357 49.563C97.2056 49.9565 96.8845 50.259 96.4697 50.4731C96.055 50.6846 95.5814 50.7917 95.0489 50.7917C94.5164 50.7917 94.0401 50.6846 93.628 50.4731H93.6334ZM96.467 49.6273C96.8202 49.2686 96.9968 48.7868 96.9968 48.1845C96.9968 47.5822 96.8202 47.0897 96.467 46.731C96.1138 46.3723 95.6429 46.193 95.0569 46.193C94.4709 46.193 93.9973 46.3723 93.6468 46.731C93.2936 47.0897 93.117 47.5742 93.117 48.1845C93.117 48.7948 93.2936 49.2686 93.6468 49.6273C94 49.986 94.4709 50.1653 95.0569 50.1653C95.6429 50.1653 96.1165 49.986 96.467 49.6273Z" fill="#161179"/>
<path d="M99.4398 50.6525C99.0705 50.5588 98.7815 50.4464 98.5782 50.3072V49.6406C98.8377 49.7986 99.1374 49.9244 99.4772 50.0207C99.8171 50.1171 100.144 50.1653 100.457 50.1653C100.882 50.1653 101.187 50.1064 101.374 49.986C101.562 49.8655 101.658 49.6862 101.658 49.4479C101.658 49.2632 101.618 49.1187 101.535 49.0116C101.452 48.9045 101.315 48.8108 101.126 48.7279C100.933 48.6449 100.636 48.5512 100.232 48.4415C99.8358 48.3317 99.5174 48.2166 99.2819 48.0962C99.0464 47.9757 98.8672 47.8231 98.7441 47.6384C98.621 47.4537 98.5594 47.2182 98.5594 46.9291C98.5594 46.4847 98.7387 46.1448 99.0973 45.9066C99.4558 45.671 99.9348 45.5532 100.529 45.5532C100.85 45.5532 101.152 45.5827 101.439 45.6416C101.722 45.7004 101.96 45.7808 102.153 45.8825V46.549C101.955 46.4392 101.714 46.3536 101.433 46.2867C101.152 46.2224 100.861 46.1903 100.561 46.1903C100.165 46.1903 99.8626 46.2492 99.6565 46.3643C99.4505 46.4821 99.3488 46.6694 99.3488 46.9291C99.3488 47.1084 99.3836 47.2449 99.4558 47.3386C99.5281 47.435 99.6619 47.5206 99.8572 47.601C100.053 47.6786 100.366 47.7776 100.796 47.8927C101.412 48.064 101.843 48.2648 102.083 48.4923C102.327 48.7225 102.447 49.0384 102.447 49.4426C102.447 49.8468 102.284 50.1894 101.96 50.4276C101.637 50.6659 101.142 50.7863 100.478 50.7863C100.157 50.7863 99.8117 50.7408 99.4425 50.6471L99.4398 50.6525Z" fill="#161179"/>
</g>
<defs>
<clipPath id="clip0_2458_1034">
<rect width="152" height="53" fill="white"/>
</clipPath>
</defs>
</svg>
