<svg width="290" height="101" viewBox="0 0 290 101" fill="none" xmlns="http://www.w3.org/2000/svg">
<g clip-path="url(#clip0_2818_647)">
<path d="M10.6823 77.3876C6.38371 76.5153 3.0336 75.3115 0.631911 73.7812V62.0846C3.47212 63.8342 6.85793 65.237 10.7945 66.2929C14.7259 67.3488 18.4431 67.8793 21.9411 67.8793C25.4391 67.8793 27.9887 67.5681 29.5898 66.9509C31.1909 66.3337 31.9915 65.186 31.9915 63.5077C31.9915 62.1968 31.5734 61.1205 30.7371 60.2839C29.9008 59.4473 28.5496 58.6822 26.6935 57.9884C24.8374 57.2947 21.9768 56.4428 18.1168 55.4175C13.7468 54.178 10.3049 52.9027 7.79107 51.5918C5.27721 50.2808 3.38034 48.623 2.11066 46.6183C0.835876 44.6136 0.198486 42.0121 0.198486 38.8035C0.198486 33.5546 2.27383 29.6064 6.42451 26.9437C10.5752 24.2861 16.1842 22.9547 23.2516 22.9547C26.8924 22.9547 30.5178 23.3016 34.1229 23.9953C37.728 24.6891 40.5529 25.6531 42.5925 26.8927V38.1506C40.405 36.8397 37.7484 35.7838 34.6175 34.9829C31.4867 34.182 28.2793 33.7791 25.0006 33.7791C21.4312 33.7791 18.7338 34.1259 16.9134 34.8197C15.093 35.5134 14.1803 36.8397 14.1803 38.8087C14.1803 40.1196 14.6698 41.1602 15.6539 41.9254C16.638 42.6905 17.9281 43.3486 19.5343 43.8944C21.1355 44.4402 24.0522 45.2614 28.2742 46.353C32.792 47.5926 36.3206 48.9393 38.8753 50.3981C41.4248 51.857 43.2452 53.6067 44.3364 55.6471C45.4277 57.6875 45.9733 60.238 45.9733 63.2986C45.9733 67.9609 43.9897 71.7 40.0175 74.5004C36.0453 77.306 30.3088 78.7087 22.808 78.7087C19.0193 78.7087 14.9757 78.2701 10.6772 77.3978L10.6823 77.3876Z" fill="white"/>
<path d="M59.1394 13.2268C57.6453 11.7679 56.9009 9.94687 56.9009 7.76364C56.9009 5.58041 57.6453 3.73894 59.1394 2.24435C60.6334 0.749752 62.4742 0.00500488 64.6566 0.00500488C66.8391 0.00500488 68.7002 0.754853 70.23 2.24435C71.7597 3.73894 72.5246 5.58041 72.5246 7.76364C72.5246 9.94687 71.7597 11.773 70.23 13.2268C68.7002 14.6857 66.8442 15.4152 64.6566 15.4152C62.4691 15.4152 60.6283 14.6857 59.1394 13.2268ZM57.6657 24.5919H71.6526V77.0609H57.6657V24.5919Z" fill="white"/>
<path d="M93.9401 77.3876C89.6415 76.5153 86.2914 75.3115 83.8897 73.7812V62.0846C86.7299 63.8342 90.1158 65.237 94.0523 66.2929C97.9837 67.3488 101.701 67.8793 105.199 67.8793C108.697 67.8793 111.246 67.5681 112.848 66.9509C114.449 66.3337 115.249 65.186 115.249 63.5077C115.249 62.1968 114.831 61.1205 113.995 60.2839C113.159 59.4473 111.807 58.6822 109.951 57.9884C108.095 57.2947 105.235 56.4428 101.375 55.4175C97.0047 54.178 93.5627 52.9027 91.0489 51.5918C88.535 50.2808 86.6381 48.623 85.3685 46.6183C84.0937 44.6136 83.4563 42.0121 83.4563 38.8035C83.4563 33.5546 85.5316 29.6064 89.6823 26.9437C93.833 24.2861 99.442 22.9547 106.509 22.9547C110.15 22.9547 113.776 23.3016 117.381 23.9953C120.986 24.6891 123.811 25.6531 125.85 26.8927V38.1506C123.663 36.8397 121.006 35.7838 117.875 34.9829C114.744 34.182 111.537 33.7791 108.258 33.7791C104.689 33.7791 101.992 34.1259 100.171 34.8197C98.3508 35.5134 97.4381 36.8397 97.4381 38.8087C97.4381 40.1196 97.9276 41.1602 98.9117 41.9254C99.8959 42.6905 101.186 43.3486 102.792 43.8944C104.393 44.4402 107.31 45.2614 111.532 46.353C116.05 47.5926 119.578 48.9393 122.133 50.3981C124.683 51.857 126.503 53.6067 127.594 55.6471C128.685 57.6875 129.231 60.238 129.231 63.2986C129.231 67.9609 127.248 71.7 123.275 74.5004C119.303 77.306 113.567 78.7087 106.066 78.7087C102.277 78.7087 98.2335 78.2701 93.935 77.3978L93.9401 77.3876Z" fill="white"/>
<path d="M142.346 73.7249C138.338 70.4092 136.334 65.9458 136.334 60.3347C136.334 54.7236 138.226 49.949 142.015 46.6691C145.803 43.3891 151.122 41.7517 157.97 41.7517C164.818 41.7517 170.315 43.1035 175.123 45.7968V44.3736C175.123 40.655 173.976 37.9617 171.681 36.2834C169.387 34.6052 165.69 33.7686 160.591 33.7686C157.383 33.7686 154.217 34.0798 151.086 34.697C147.955 35.3193 145.186 36.1712 142.78 37.2679V26.4487C144.967 25.4285 147.894 24.5919 151.575 23.9339C155.252 23.2759 158.806 22.9494 162.228 22.9494C171.335 22.9494 178.07 24.898 182.44 28.7952C186.81 32.6923 188.998 38.1045 188.998 45.0266V77.0558H175.995V71.9191C173.736 74.1074 171.166 75.7806 168.29 76.9487C165.409 78.1117 161.896 78.6983 157.745 78.6983C151.479 78.6983 146.344 77.0405 142.341 73.7249H142.346ZM169.443 66.8436C171.916 65.6398 173.813 63.9819 175.123 61.8701V56.0754C171.115 53.2341 166.526 51.8109 161.356 51.8109C153.998 51.8109 150.321 54.6522 150.321 60.3347C150.321 63.1045 151.249 65.1807 153.105 66.563C154.961 67.9505 157.638 68.6391 161.136 68.6391C164.196 68.6391 166.965 68.0372 169.443 66.8334V66.8436Z" fill="white"/>
<path d="M201.567 24.5919H214.896V30.9325C217.736 28.2391 220.831 26.2345 224.181 24.9184C227.531 23.6074 231.356 22.9494 235.654 22.9494C240.973 22.9494 245.725 24.0971 249.911 26.3926C254.098 28.688 257.376 31.9323 259.748 36.1202C262.114 40.3132 263.297 45.1745 263.297 50.7142C263.297 56.2539 262.114 61.0284 259.748 65.2521C257.382 69.4808 254.103 72.7761 249.911 75.1429C245.72 77.5098 240.967 78.6932 235.654 78.6932C231.646 78.6932 227.878 78.127 224.344 76.9997C220.811 75.8724 217.807 74.1788 215.329 71.9191V100.995H201.562V24.5919H201.567ZM244.506 63.0688C247.714 59.8654 249.315 55.7438 249.315 50.7193C249.315 45.6948 247.714 41.6089 244.506 38.4769C241.299 35.3449 237.22 33.7788 232.268 33.7788C228.337 33.7788 224.839 34.8348 221.78 36.9466C218.72 39.0635 216.568 41.9048 215.334 45.4704V56.0754C216.497 59.6461 218.628 62.5077 221.729 64.6553C224.824 66.8079 228.337 67.8791 232.274 67.8791C237.225 67.8791 241.304 66.2774 244.511 63.0688H244.506Z" fill="white"/>
<path d="M276.469 13.2268C274.974 11.7679 274.23 9.94687 274.23 7.76364C274.23 5.58041 274.974 3.73894 276.469 2.24435C277.963 0.749752 279.803 0.00500488 281.986 0.00500488C284.168 0.00500488 286.029 0.754853 287.559 2.24435C289.089 3.73894 289.854 5.58041 289.854 7.76364C289.854 9.94687 289.089 11.773 287.559 13.2268C286.029 14.6857 284.173 15.4152 281.986 15.4152C279.798 15.4152 277.957 14.6857 276.469 13.2268ZM274.995 24.5919H288.982V77.0609H274.995V24.5919Z" fill="white"/>
<path d="M3.60177 100.842C3.00007 100.735 2.49526 100.592 2.07713 100.414V99.1437C3.06636 99.5875 4.18816 99.8068 5.44255 99.8068C6.69693 99.8068 7.66066 99.5161 8.26746 98.9346C8.87425 98.3531 9.1751 97.4757 9.1751 96.3024V94.915C8.32865 96.1698 6.98248 96.7921 5.1468 96.7921C4.21876 96.7921 3.37741 96.5881 2.62274 96.1749C1.86807 95.7617 1.27147 95.1802 0.843144 94.4253C0.414819 93.6703 0.195557 92.8032 0.195557 91.8238C0.195557 90.8444 0.409719 89.9568 0.843144 89.2018C1.27147 88.4469 1.86297 87.8603 2.60234 87.442C3.34681 87.0237 4.17797 86.8146 5.10601 86.8146C6.03404 86.8146 6.8754 86.9625 7.51279 87.2533C8.15018 87.5491 8.72128 88.0286 9.21589 88.6917V87.1053H10.6844V96.1086C10.6844 97.7001 10.2561 98.9142 9.39436 99.7507C8.53261 100.587 7.21704 101.006 5.44255 101.006C4.81536 101.006 4.20346 100.955 3.60177 100.847V100.842ZM7.80344 94.8946C8.46632 94.4253 8.92524 93.7775 9.1751 92.9562V90.625C8.91505 89.8038 8.45103 89.1661 7.78814 88.707C7.12526 88.248 6.33489 88.0235 5.42215 88.0235C4.72867 88.0235 4.10148 88.1816 3.53548 88.503C2.96948 88.8244 2.52075 89.2682 2.19441 89.8446C1.86807 90.421 1.7049 91.079 1.7049 91.8238C1.7049 92.5685 1.86807 93.2418 2.19441 93.8081C2.52075 94.3743 2.96948 94.8181 3.53548 95.1292C4.10148 95.4404 4.73377 95.5985 5.42215 95.5985C6.35019 95.5985 7.14565 95.3639 7.80854 94.8946H7.80344Z" fill="#009FFF"/>
<path d="M14.469 95.4812C13.5103 94.6089 13.031 93.3898 13.031 91.8238C13.031 90.2578 13.4593 89.0641 14.3211 88.1663C15.1828 87.2686 16.4066 86.8146 17.9975 86.8146C19.0684 86.8146 19.976 87.0186 20.7154 87.4318C21.4598 87.845 22.0207 88.4061 22.3981 89.1253C22.7754 89.8446 22.9641 90.6607 22.9641 91.5738V92.3951H14.4333C14.4843 93.4663 14.882 94.2672 15.6163 94.8028C16.3505 95.3384 17.3551 95.6036 18.6196 95.6036C19.2315 95.6036 19.8332 95.5475 20.4298 95.4353C21.0213 95.3231 21.5567 95.17 22.0258 94.9762V96.2463C21.6332 96.4045 21.1029 96.532 20.4298 96.6391C19.7567 96.7411 19.1041 96.7972 18.4616 96.7972C16.7534 96.7972 15.4174 96.3586 14.4588 95.4863L14.469 95.4812ZM21.5567 91.3137C21.5312 90.2935 21.2151 89.4926 20.6185 88.906C20.0168 88.3194 19.1397 88.0235 17.9771 88.0235C16.8145 88.0235 15.9732 88.3245 15.3766 88.9315C14.7749 89.5385 14.4639 90.3292 14.4384 91.3086H21.5567V91.3137Z" fill="#009FFF"/>
<path d="M26.6036 96.5269C25.9 96.3484 25.3493 96.1342 24.9617 95.8689V94.5988C25.4563 94.8997 26.0274 95.1395 26.675 95.3231C27.3226 95.5067 27.9447 95.5986 28.5413 95.5986C29.3521 95.5986 29.9334 95.4863 30.2903 95.2568C30.6472 95.0272 30.8308 94.6855 30.8308 94.2315C30.8308 93.8795 30.7543 93.6041 30.5962 93.4C30.4382 93.196 30.1781 93.0174 29.8161 92.8593C29.4489 92.7012 28.8829 92.5226 28.113 92.3135C27.3583 92.1044 26.7515 91.885 26.3028 91.6555C25.8541 91.4259 25.5124 91.1352 25.2779 90.7832C25.0433 90.4312 24.926 89.9823 24.926 89.4314C24.926 88.5847 25.2677 87.9368 25.9509 87.4828C26.6342 87.034 27.547 86.8095 28.679 86.8095C29.2909 86.8095 29.8671 86.8656 30.4127 86.9778C30.9532 87.0901 31.407 87.2431 31.7741 87.4369V88.7071C31.3968 88.4979 30.9379 88.3347 30.4025 88.2072C29.8671 88.0848 29.3113 88.0236 28.7402 88.0236C27.9855 88.0236 27.4093 88.1358 27.0167 88.3551C26.624 88.5796 26.4303 88.9366 26.4303 89.4314C26.4303 89.7732 26.4966 90.0334 26.6342 90.2119C26.7719 90.3955 27.0269 90.5588 27.3991 90.7118C27.7713 90.8597 28.3679 91.0485 29.1889 91.2678C30.3617 91.5943 31.1826 91.9768 31.6416 92.4104C32.1056 92.8491 32.335 93.451 32.335 94.2213C32.335 94.9915 32.024 95.6445 31.407 96.0985C30.79 96.5524 29.8467 96.782 28.5821 96.782C27.9702 96.782 27.3124 96.6953 26.6087 96.5167L26.6036 96.5269Z" fill="#009FFF"/>
<path d="M35.8061 96.0115C35.3166 95.4911 35.0718 94.7464 35.0718 93.7823V88.2834H33.6033V87.1102H35.0718V84.2944H36.5761V87.1102H38.942V88.2834H36.5761V93.8231C36.5761 94.476 36.7086 94.9351 36.9687 95.2004C37.2287 95.4656 37.703 95.6034 38.3964 95.6034C38.733 95.6034 39.095 95.5269 39.4724 95.3687V96.6032C39.044 96.7358 38.5086 96.797 37.8661 96.797C36.9789 96.797 36.2905 96.5369 35.801 96.0166L35.8061 96.0115Z" fill="#009FFF"/>
<path d="M41.8342 95.9404C41.1764 95.3742 40.845 94.5937 40.845 93.6041C40.845 92.6145 41.1662 91.7831 41.8036 91.2271C42.441 90.671 43.369 90.3956 44.5826 90.3956C45.939 90.3956 47.1067 90.6761 48.0857 91.2373V90.5333C48.0857 89.6866 47.8461 89.054 47.3616 88.6459C46.8772 88.2379 46.1175 88.0287 45.0721 88.0287C43.9656 88.0287 42.9407 88.2379 42.0025 88.6562V87.386C42.3951 87.2177 42.8897 87.0799 43.4914 86.9728C44.0931 86.8708 44.6642 86.8147 45.2149 86.8147C46.7039 86.8147 47.8053 87.1514 48.5191 87.8247C49.2381 88.498 49.5951 89.4264 49.5951 90.6149V96.5066H48.1877V95.2926C47.3667 96.2975 46.148 96.7974 44.5316 96.7974C43.3945 96.7974 42.5022 96.5117 41.8393 95.9455L41.8342 95.9404ZM42.1554 84.6774C42.5226 84.1163 43.1396 83.8357 44.0115 83.8357C44.2971 83.8357 44.5724 83.8765 44.8325 83.953C45.0925 84.0295 45.424 84.1571 45.8319 84.3254C46.1684 84.4835 46.4693 84.6008 46.7294 84.6876C46.9894 84.7743 47.2648 84.8151 47.5503 84.8151C47.9276 84.8151 48.2693 84.7386 48.5752 84.5804C48.8812 84.4223 49.1565 84.1622 49.4064 83.8V85.1518C49.0393 85.6976 48.4223 85.973 47.5503 85.973C47.224 85.973 46.918 85.9322 46.6325 85.8455C46.3469 85.7588 46.0206 85.6312 45.6534 85.4629C45.2863 85.3048 44.9906 85.1875 44.7611 85.111C44.5316 85.0344 44.2818 84.9936 44.0064 84.9936C43.6393 84.9936 43.3078 85.0701 43.007 85.2283C42.7061 85.3864 42.4206 85.6517 42.1452 86.0291V84.6774H42.1554ZM46.8007 95.1395C47.3667 94.859 47.7951 94.4662 48.0806 93.9561V92.4513C47.5707 92.1503 47.0659 91.931 46.5662 91.7933C46.0665 91.6555 45.5005 91.5892 44.8733 91.5892C43.986 91.5892 43.3435 91.7576 42.9458 92.0891C42.5481 92.4207 42.3492 92.9257 42.3492 93.6041C42.3492 94.91 43.1957 95.5629 44.8937 95.5629C45.5973 95.5629 46.2347 95.4252 46.8007 95.1395Z" fill="#009FFF"/>
<path d="M53.8433 96.1852C53.0529 95.7822 52.441 95.2058 52.0025 94.4508C51.564 93.701 51.3447 92.8236 51.3447 91.8187C51.3447 90.8138 51.5691 89.9517 52.0076 89.1968C52.4512 88.4418 53.0682 87.8552 53.8586 87.4369C54.649 87.0187 55.5464 86.8095 56.5458 86.8095C57.5453 86.8095 58.4478 87.0187 59.2331 87.4369C60.0234 87.8552 60.6404 88.4418 61.084 89.1968C61.5277 89.9517 61.7469 90.8291 61.7469 91.8187C61.7469 92.8083 61.5277 93.701 61.0891 94.4508C60.6506 95.2007 60.0387 95.7771 59.2484 96.1852C58.458 96.5881 57.5555 96.7922 56.5407 96.7922C55.526 96.7922 54.6184 96.5881 53.8331 96.1852H53.8433ZM59.2433 94.5732C59.9163 93.8897 60.2529 92.9715 60.2529 91.8238C60.2529 90.6761 59.9163 89.7375 59.2433 89.054C58.5702 88.3704 57.6727 88.0287 56.556 88.0287C55.4393 88.0287 54.5368 88.3704 53.8688 89.054C53.1957 89.7375 52.8592 90.6608 52.8592 91.8238C52.8592 92.9868 53.1957 93.8897 53.8688 94.5732C54.5419 95.2568 55.4393 95.5986 56.556 95.5986C57.6727 95.5986 58.5753 95.2568 59.2433 94.5732Z" fill="#009FFF"/>
<path d="M73.5501 96.1849C72.8056 95.7819 72.2192 95.2004 71.7909 94.4454C71.3626 93.6905 71.1433 92.8131 71.1433 91.8235C71.1433 90.8339 71.3575 89.9719 71.7807 89.2118C72.2039 88.4467 72.7903 87.86 73.5399 87.4418C74.2895 87.0235 75.1257 86.8143 76.0538 86.8143C76.9818 86.8143 77.7518 86.9725 78.4503 87.2938C79.1489 87.6152 79.7047 88.0794 80.1229 88.6915V82.0398H81.6271V96.5012H80.1586V94.8586C79.6639 95.5116 79.0775 95.9962 78.4095 96.3175C77.7365 96.6389 76.9512 96.797 76.0538 96.797C75.1563 96.797 74.2946 96.593 73.5501 96.19V96.1849ZM78.7257 94.9045C79.3988 94.4403 79.8628 93.8078 80.1229 92.9968V90.6503C79.873 89.8392 79.4141 89.2016 78.7461 88.7323C78.073 88.263 77.2826 88.0284 76.3699 88.0284C75.6764 88.0284 75.0492 88.1865 74.4832 88.5079C73.9172 88.8292 73.4685 89.273 73.1422 89.8494C72.8158 90.4259 72.6527 91.0839 72.6527 91.8286C72.6527 92.5734 72.8158 93.2314 73.1422 93.8027C73.4685 94.3791 73.9172 94.8229 74.4832 95.1341C75.0492 95.4452 75.6815 95.6034 76.3699 95.6034C77.2673 95.6034 78.0577 95.3738 78.7257 94.9096V94.9045Z" fill="#009FFF"/>
<path d="M85.416 95.4812C84.4573 94.6089 83.978 93.3898 83.978 91.8238C83.978 90.2578 84.4064 89.0641 85.2681 88.1663C86.1299 87.2686 87.3536 86.8146 88.9446 86.8146C90.0154 86.8146 90.923 87.0186 91.6624 87.4318C92.4069 87.845 92.9678 88.4061 93.3451 89.1253C93.7224 89.8446 93.9111 90.6607 93.9111 91.5738V92.3951H85.3803C85.4313 93.4663 85.829 94.2672 86.5633 94.8028C87.2976 95.3384 88.3021 95.6036 89.5667 95.6036C90.1786 95.6036 90.7803 95.5475 91.3769 95.4353C91.9683 95.3231 92.5037 95.17 92.9729 94.9762V96.2463C92.5802 96.4045 92.0499 96.532 91.3769 96.6391C90.7038 96.7411 90.0511 96.7972 89.4086 96.7972C87.7004 96.7972 86.3644 96.3586 85.4058 95.4863L85.416 95.4812ZM92.5088 91.3137C92.4834 90.2935 92.1672 89.4926 91.5706 88.906C90.9689 88.3194 90.0919 88.0235 88.9293 88.0235C87.7667 88.0235 86.9253 88.3245 86.3287 88.9315C85.727 89.5385 85.416 90.3292 85.3905 91.3086H92.5088V91.3137Z" fill="#009FFF"/>
<path d="M103.697 87.1054H105.166V88.7275C106.094 87.4471 107.46 86.8095 109.276 86.8095C110.204 86.8095 111.035 87.0187 111.779 87.4369C112.524 87.8552 113.11 88.4418 113.539 89.1968C113.967 89.9517 114.186 90.8291 114.186 91.8187C114.186 92.8083 113.972 93.6653 113.549 94.4202C113.126 95.1752 112.539 95.7618 111.79 96.1699C111.04 96.583 110.204 96.7871 109.276 96.7871C108.429 96.7871 107.639 96.629 106.91 96.3076C106.181 95.9862 105.615 95.522 105.207 94.9099V100.781H103.702V87.1003L103.697 87.1054ZM110.867 95.1293C111.433 94.8181 111.876 94.3743 112.197 93.8081C112.519 93.2419 112.677 92.5788 112.677 91.8238C112.677 91.0689 112.519 90.4159 112.197 89.8395C111.876 89.258 111.433 88.8142 110.867 88.4979C110.301 88.1868 109.663 88.0287 108.96 88.0287C108.072 88.0287 107.292 88.2582 106.624 88.7224C105.951 89.1866 105.482 89.8242 105.207 90.6302V92.9613C105.456 93.7571 105.92 94.3947 106.604 94.8793C107.287 95.3639 108.072 95.6037 108.96 95.6037C109.663 95.6037 110.301 95.4455 110.867 95.1344V95.1293Z" fill="#009FFF"/>
<path d="M116.532 87.1057H118.001V88.9471C118.756 87.7229 120.173 87.1057 122.243 87.1057V88.3197C119.974 88.3197 118.572 89.0696 118.037 90.5693V96.4966H116.532V87.1006V87.1057Z" fill="#009FFF"/>
<path d="M126.012 96.1852C125.222 95.7822 124.61 95.2058 124.171 94.4508C123.733 93.701 123.513 92.8236 123.513 91.8187C123.513 90.8138 123.738 89.9517 124.176 89.1968C124.62 88.4418 125.237 87.8552 126.027 87.4369C126.818 87.0187 127.715 86.8095 128.715 86.8095C129.714 86.8095 130.616 87.0187 131.402 87.4369C132.192 87.8552 132.809 88.4418 133.253 89.1968C133.696 89.9517 133.916 90.8291 133.916 91.8187C133.916 92.8083 133.696 93.701 133.258 94.4508C132.819 95.2007 132.207 95.7771 131.417 96.1852C130.627 96.5881 129.724 96.7922 128.709 96.7922C127.695 96.7922 126.787 96.5881 126.002 96.1852H126.012ZM131.407 94.5732C132.08 93.8897 132.416 92.9715 132.416 91.8238C132.416 90.6761 132.08 89.7375 131.407 89.054C130.734 88.3704 129.836 88.0287 128.72 88.0287C127.603 88.0287 126.7 88.3704 126.032 89.054C125.359 89.7375 125.023 90.6608 125.023 91.8238C125.023 92.9868 125.359 93.8897 126.032 94.5732C126.705 95.2568 127.603 95.5986 128.72 95.5986C129.836 95.5986 130.739 95.2568 131.407 94.5732Z" fill="#009FFF"/>
<path d="M138.096 96.1954C137.306 95.7975 136.689 95.2262 136.245 94.4712C135.802 93.7214 135.582 92.8389 135.582 91.8187C135.582 90.7985 135.807 89.9313 136.255 89.1662C136.704 88.401 137.326 87.8195 138.122 87.4165C138.917 87.0136 139.815 86.8095 140.819 86.8095C141.538 86.8095 142.17 86.8758 142.716 87.0034C143.262 87.136 143.751 87.3451 144.184 87.6308V88.9009C143.364 88.3143 142.288 88.0185 140.957 88.0185C139.809 88.0185 138.876 88.35 138.157 89.0182C137.438 89.6814 137.081 90.6149 137.081 91.8187C137.081 93.0225 137.438 93.9509 138.157 94.609C138.876 95.267 139.789 95.5986 140.896 95.5986C141.584 95.5986 142.206 95.522 142.752 95.3639C143.297 95.2058 143.822 94.966 144.317 94.6396V95.9097C143.858 96.2209 143.348 96.4504 142.782 96.583C142.216 96.7208 141.538 96.7871 140.758 96.7871C139.769 96.7871 138.876 96.5882 138.086 96.1903L138.096 96.1954Z" fill="#009FFF"/>
<path d="M147.725 95.4812C146.766 94.6089 146.287 93.3898 146.287 91.8238C146.287 90.2578 146.715 89.0641 147.577 88.1663C148.438 87.2686 149.662 86.8146 151.253 86.8146C152.324 86.8146 153.232 87.0186 153.971 87.4318C154.715 87.845 155.276 88.4061 155.654 89.1253C156.031 89.8446 156.22 90.6607 156.22 91.5738V92.3951H147.689C147.74 93.4663 148.138 94.2672 148.872 94.8028C149.606 95.3384 150.611 95.6036 151.875 95.6036C152.487 95.6036 153.089 95.5475 153.685 95.4353C154.277 95.3231 154.812 95.17 155.281 94.9762V96.2463C154.889 96.4045 154.359 96.532 153.685 96.6391C153.012 96.7411 152.36 96.7972 151.717 96.7972C150.009 96.7972 148.673 96.3586 147.714 95.4863L147.725 95.4812ZM154.817 91.3137C154.792 90.2935 154.476 89.4926 153.879 88.906C153.278 88.3194 152.4 88.0235 151.238 88.0235C150.075 88.0235 149.234 88.3245 148.637 88.9315C148.036 89.5385 147.725 90.3292 147.699 91.3086H154.817V91.3137Z" fill="#009FFF"/>
<path d="M159.859 96.5269C159.156 96.3484 158.605 96.1342 158.217 95.8689V94.5988C158.712 94.8997 159.283 95.1395 159.931 95.3231C160.578 95.5067 161.2 95.5986 161.797 95.5986C162.608 95.5986 163.189 95.4863 163.546 95.2568C163.903 95.0272 164.086 94.6855 164.086 94.2315C164.086 93.8795 164.01 93.6041 163.852 93.4C163.694 93.196 163.434 93.0174 163.072 92.8593C162.705 92.7012 162.139 92.5226 161.369 92.3135C160.614 92.1044 160.007 91.885 159.558 91.6555C159.11 91.4259 158.768 91.1352 158.533 90.7832C158.299 90.4312 158.182 89.9823 158.182 89.4314C158.182 88.5847 158.523 87.9368 159.207 87.4828C159.89 87.034 160.803 86.8095 161.935 86.8095C162.546 86.8095 163.123 86.8656 163.668 86.9778C164.209 87.0901 164.663 87.2431 165.03 87.4369V88.7071C164.652 88.4979 164.194 88.3347 163.658 88.2072C163.123 88.0848 162.567 88.0236 161.996 88.0236C161.241 88.0236 160.665 88.1358 160.272 88.3551C159.88 88.5796 159.686 88.9366 159.686 89.4314C159.686 89.7732 159.752 90.0334 159.89 90.2119C160.028 90.3955 160.282 90.5588 160.655 90.7118C161.027 90.8597 161.624 91.0485 162.445 91.2678C163.617 91.5943 164.438 91.9768 164.897 92.4104C165.361 92.8491 165.591 93.451 165.591 94.2213C165.591 94.9915 165.28 95.6445 164.663 96.0985C164.046 96.5524 163.102 96.782 161.838 96.782C161.226 96.782 160.568 96.6953 159.864 96.5167L159.859 96.5269Z" fill="#009FFF"/>
<path d="M168.74 96.5269C168.036 96.3484 167.485 96.1342 167.098 95.8689V94.5988C167.592 94.8997 168.163 95.1395 168.811 95.3231C169.459 95.5067 170.081 95.5986 170.677 95.5986C171.488 95.5986 172.069 95.4863 172.426 95.2568C172.783 95.0272 172.967 94.6855 172.967 94.2315C172.967 93.8795 172.89 93.6041 172.732 93.4C172.574 93.196 172.314 93.0174 171.952 92.8593C171.585 92.7012 171.019 92.5226 170.249 92.3135C169.494 92.1044 168.888 91.885 168.439 91.6555C167.99 91.4259 167.648 91.1352 167.414 90.7832C167.179 90.4312 167.062 89.9823 167.062 89.4314C167.062 88.5847 167.404 87.9368 168.087 87.4828C168.77 87.034 169.683 86.8095 170.815 86.8095C171.427 86.8095 172.003 86.8656 172.549 86.9778C173.089 87.0901 173.543 87.2431 173.91 87.4369V88.7071C173.533 88.4979 173.074 88.3347 172.538 88.2072C172.003 88.0848 171.447 88.0236 170.876 88.0236C170.121 88.0236 169.545 88.1358 169.153 88.3551C168.76 88.5796 168.566 88.9366 168.566 89.4314C168.566 89.7732 168.633 90.0334 168.77 90.2119C168.908 90.3955 169.163 90.5588 169.535 90.7118C169.907 90.8597 170.504 91.0485 171.325 91.2678C172.498 91.5943 173.319 91.9768 173.778 92.4104C174.242 92.8491 174.471 93.451 174.471 94.2213C174.471 94.9915 174.16 95.6445 173.543 96.0985C172.926 96.5524 171.983 96.782 170.718 96.782C170.106 96.782 169.448 96.6953 168.745 96.5167L168.74 96.5269Z" fill="#009FFF"/>
<path d="M178.628 96.1852C177.838 95.7822 177.226 95.2058 176.788 94.4508C176.349 93.701 176.13 92.8236 176.13 91.8187C176.13 90.8138 176.354 89.9517 176.793 89.1968C177.236 88.4418 177.853 87.8552 178.644 87.4369C179.434 87.0187 180.332 86.8095 181.331 86.8095C182.33 86.8095 183.233 87.0187 184.018 87.4369C184.809 87.8552 185.426 88.4418 185.869 89.1968C186.313 89.9517 186.532 90.8291 186.532 91.8187C186.532 92.8083 186.313 93.701 185.874 94.4508C185.436 95.2007 184.824 95.7771 184.034 96.1852C183.243 96.5881 182.341 96.7922 181.326 96.7922C180.311 96.7922 179.404 96.5881 178.618 96.1852H178.628ZM184.028 94.5732C184.701 93.8897 185.038 92.9715 185.038 91.8238C185.038 90.6761 184.701 89.7375 184.028 89.054C183.355 88.3704 182.458 88.0287 181.341 88.0287C180.224 88.0287 179.322 88.3704 178.654 89.054C177.981 89.7375 177.644 90.6608 177.644 91.8238C177.644 92.9868 177.981 93.8897 178.654 94.5732C179.327 95.2568 180.224 95.5986 181.341 95.5986C182.458 95.5986 183.36 95.2568 184.028 94.5732Z" fill="#009FFF"/>
<path d="M189.695 96.5269C188.991 96.3484 188.44 96.1342 188.053 95.8689V94.5988C188.547 94.8997 189.118 95.1395 189.766 95.3231C190.414 95.5067 191.036 95.5986 191.632 95.5986C192.443 95.5986 193.024 95.4863 193.381 95.2568C193.738 95.0272 193.922 94.6855 193.922 94.2315C193.922 93.8795 193.845 93.6041 193.687 93.4C193.529 93.196 193.269 93.0174 192.907 92.8593C192.54 92.7012 191.974 92.5226 191.204 92.3135C190.449 92.1044 189.843 91.885 189.394 91.6555C188.945 91.4259 188.603 91.1352 188.369 90.7832C188.134 90.4312 188.017 89.9823 188.017 89.4314C188.017 88.5847 188.359 87.9368 189.042 87.4828C189.725 87.034 190.638 86.8095 191.77 86.8095C192.382 86.8095 192.958 86.8656 193.504 86.9778C194.044 87.0901 194.498 87.2431 194.865 87.4369V88.7071C194.488 88.4979 194.029 88.3347 193.494 88.2072C192.958 88.0848 192.402 88.0236 191.831 88.0236C191.077 88.0236 190.5 88.1358 190.108 88.3551C189.715 88.5796 189.521 88.9366 189.521 89.4314C189.521 89.7732 189.588 90.0334 189.725 90.2119C189.863 90.3955 190.118 90.5588 190.49 90.7118C190.862 90.8597 191.459 91.0485 192.28 91.2678C193.453 91.5943 194.274 91.9768 194.733 92.4104C195.197 92.8491 195.426 93.451 195.426 94.2213C195.426 94.9915 195.115 95.6445 194.498 96.0985C193.881 96.5524 192.938 96.782 191.673 96.782C191.061 96.782 190.403 96.6953 189.7 96.5167L189.695 96.5269Z" fill="#009FFF"/>
</g>
<defs>
<clipPath id="clip0_2818_647">
<rect width="289.66" height="101" fill="white" transform="translate(0.193848)"/>
</clipPath>
</defs>
</svg>
